<?xml version="1.0" encoding="UTF-8" standalone="no"?>
<svg
   width="277"
   height="42"
   viewBox="0 0 277 42"
   xmlns="http://www.w3.org/2000/svg">
  <path
     d="m 41.108,34.2353 c 0,3.7985 -3.0755,6.874 -6.8752,6.874 H 6.87649 C 3.07801,41.1093 0,38.0338 0,34.2353 V 6.87649 C 0,3.07801 3.07801,0 6.87649,0 H 34.2328 c 3.7985,0 6.8752,3.07801 6.8752,6.87649 z"
     fill="#e31019"/>
  <g fill="#221814">
    <path
      d="m 32.8824,30.3073 -0.1786,0.249 c 1.016,1.3001 2.0307,2.6694 1.612,3.3546 -0.4187,0.684 -4.8346,2.6719 -7.1066,2.6719 -3.1057,0 -6.19,-1.0612 -6.3308,-4.9728 -0.1798,-4.9062 1.6698,-7.8887 1.6698,-7.8887 1.5553,-0.8085 8.7763,-5.1841 8.423,-7.646 -0.7154,-5.0357 -7.011,0.6526 -7.7642,-0.2477 -0.3684,-0.4375 0.2578,-1.6823 1.0776,-2.9372 0.1169,0.1597 0.4388,0.7897 0.5268,0.9167 0.0805,0.1169 0.1069,0.1383 0.1446,0.0427 0.0428,-0.1006 0.2288,-0.635 0.2905,-0.772 0.0364,-0.0893 0.088,-0.1094 0.142,-0.0478 0.1006,0.122 0.3257,0.4351 0.4338,0.5256 0.078,0.0666 0.1044,0.0767 0.1044,-0.0252 0,-0.098 0,-0.7556 -0.0101,-0.8839 -0.0063,-0.1408 0.044,-0.2225 0.1283,-0.1622 0.0779,0.0578 0.5369,0.4313 0.5369,0.4313 0.0566,0.0264 0.0767,0.0176 0.0867,-0.0968 0.0126,-0.1132 0.1056,-1.3077 0.127,-1.5843 0.0126,-0.1383 -0.0025,-0.2452 0.127,-0.1194 0.127,0.1282 0.4615,0.689 0.5306,0.826 0.0201,0.0428 0.0641,0.0667 0.0905,0.0491 0.0353,-0.0214 -0.0088,-0.1761 -0.015,-0.298 0,0 -0.2867,-1.93006 -0.0503,-2.25446 C 27.7159,9.11334 31.356,5.41796 31.4729,5.20547 31.5861,4.99172 31.1988,4.71385 30.9184,4.53404 30.6305,4.34796 30.589,3.76454 30.589,3.76454 30.1916,3.38608 29.7968,2.69579 29.3329,3.43888 29.0399,3.91039 26.8094,6.54456 25.4766,7.14684 24.702,7.49638 23.6169,8.16907 22.6827,8.75374 21.4442,8.57268 17.7149,8.02572 17.1881,7.92639 16.5493,7.80443 16.5531,8.3451 17.0975,8.43814 17.5062,8.51484 20.1957,9.15358 21.5222,9.4742 21.3436,9.58108 21.1852,9.67538 21.067,9.73825 20.2547,10.1683 10.1368,13.5594 9.30694,13.7505 8.47331,13.9441 8.52235,14.4508 9.40501,14.3527 10.2927,14.2534 20.0108,11.3225 20.9639,11.0346 c 0.1987,-0.0629 0.1433,0.0264 0.0277,0.0867 0,0 -1.011,0.8073 -1.0939,0.8538 -0.0767,0.0528 -0.0818,0.1207 0.0327,0.088 0.1169,-0.0302 0.7569,-0.2276 0.8487,-0.2502 0.0943,-0.0264 0.1018,0.0352 0.0477,0.093 -0.0452,0.044 -0.6714,0.7607 -0.7456,0.8299 -0.0616,0.0666 -0.0767,0.1245 0.0566,0.093 0.1069,-0.0239 1.2398,-0.6551 1.5855,-0.728 -0.8172,1.573 -2.0168,4.6849 -0.606,6.1485 1.7314,1.803 4.778,-2.4242 6.0919,-0.8726 1.3114,1.5553 -5.076,3.42 -5.7939,4.5403 -0.7154,1.1165 -2.4808,6.4678 -1.9112,10.3116 0.2389,1.6144 0.5998,6.2792 7.6422,6.2792 7.05,0 10.4524,-3.4175 10.4524,-4.7264 0.0013,-1.3013 -4.2976,-2.5398 -4.7163,-3.4741 z"/>
    <path
      d="m 11.7827,14.4962 c -2.65301,1.6509 -2.39022,4.8358 -1.0499,4.7855 0.7305,-0.0264 1.8534,-1.2762 1.7163,-2.3651 -0.1308,-1.0838 -0.0641,-2.2368 0.464,-2.619 l -0.5948,-0.0654 z"/>
    <path
      d="m 15.053,19.9317 c 0.1698,-0.0276 0.3395,-0.0528 0.5042,-0.0729 4.0915,-0.5117 3.4314,-1.4723 2.9033,-1.7917 -0.3898,-0.2364 -3.9355,0.8122 -6.4867,1.6924 1.3051,-1.373 5.9611,-3.7758 6.4653,-3.967 0.5457,-0.2137 0.22,-1.6119 -0.5457,-1.9288 -0.7619,-0.3181 -3.8676,0.8991 -4.954,2.5324 l 0.0264,0.264 c 0,0 2.2859,-0.9267 2.34,-0.5017 0.0528,0.4049 -2.0634,1.5252 -3.752,3.7457 -0.728,0.2552 -1.3466,0.4866 -1.74394,0.6588 -1.78419,0.7633 -5.54997,1.7905 -5.54997,1.7905 0,0 1.38812,1.534 1.85208,1.0851 0.38098,-0.3659 3.72933,-2.1928 7.17953,-3.1207 -2.2796,1.7892 -4.91502,7.2172 -5.52736,11.0484 -0.4627,2.8843 -1.84831,4.026 -1.65091,4.4699 0.19741,0.4476 2.37892,3.132 2.9045,2.5599 0.53186,-0.5758 0.26404,-2.4317 0.06789,-3.899 -0.08675,-0.674 -0.09304,-2.9196 0.55827,-5.6003 7.88991,-10.5467 6.84001,-0.6023 6.84001,0.8022 0,2.946 -0.9908,5.7499 -2.2456,6.5219 -0.1899,0.1182 -0.459,0.1698 -0.7544,0.1886 -0.3408,-0.0163 -2.213,-0.2804 -2.213,0.2301 0,0.5256 0.6878,0.1258 1.3529,0.8827 0.5759,0.6563 0.5407,0.7242 0.6111,1.0197 0.0566,0.2427 0.8047,0.1509 1.2926,-0.1144 1.1366,-0.464 3.4703,-2.7184 3.4703,-7.7654 0,-5.8216 -0.3307,-7.9289 -2.1778,-7.9289 -1.4824,0 -4.192,2.2229 -5.3789,3.6236 0.8914,-2.2808 2.3311,-4.622 4.6119,-6.4251 z"/>
    <path
      d="m 10.2701,29.8322 c 0.054,0.4878 0.6664,0.5859 1.3378,0.4199 0.6714,-0.1634 2.1425,-0.938 1.8081,-1.2309 -0.3357,-0.288 -1.0034,-0.7431 -1.7427,-0.5809 -0.7356,0.1596 -1.4347,1.0675 -1.4032,1.3919 z"/>
    <path
      d="m 9.53453,32.705 c 0.2213,-0.3835 5.48587,-2.3689 5.45567,-1.9816 -0.0327,0.3885 -2.9799,2.6907 -3.4829,2.9171 -0.5029,0.2263 -2.41033,-0.1936 -1.97277,-0.9355 z"/>
    <path
      d="m 23.2058,24.4618 c -0.117,0.6124 1.9728,1.3077 2.9258,1.0587 0.9544,-0.2477 2.389,-1.4309 2.1514,-2.3588 -0.2389,-0.9342 -1.3768,-0.0654 -2.0885,0.1836 -0.7167,0.2527 -2.868,0.4967 -2.9887,1.1165 z"/>
    <path
      d="m 22.2551,28.0051 c 0.5344,0 3.0403,-1.0537 3.9972,-1.0537 0.9581,0 1.1366,0.1861 1.0775,0.6212 -0.0616,0.4325 -1.1329,1.6106 -1.974,1.676 -0.8324,0.0641 -3.7608,-0.0654 -3.8199,-0.5595 -0.0591,-0.4954 0.7192,-0.684 0.7192,-0.684 z"/>
    <path
      d="m 22.3119,30.9901 c 0.7745,0 4.6573,-1.1178 4.9553,-1.2448 0.3005,-0.1219 0.4187,-0.0578 0.3608,0.3772 -0.0603,0.4338 -2.5725,2.4205 -3.4678,2.6091 -0.8952,0.1848 -2.2054,-0.9946 -2.3286,-1.1795 -0.1144,-0.186 -0.1144,-0.562 0.4803,-0.562 z"/>
    <path
      d="m 14.5677,9.10086 c 0.8676,-0.28919 3.0013,0.49037 2.9636,1.07004 -0.0339,0.5758 -0.4602,0.8449 -0.943,0.9141 -0.4828,0.0729 -1.6069,-0.4238 -2.0294,-1.13668 -0.4237,-0.71795 -0.1157,-0.80471 0.0088,-0.84746 z"/>
  </g>

  <path
     d="M 25.5482,8.88694 C 25.5772,9.17362 25.2867,9.43012 24.907,9.45653 24.5273,9.48419 24.2003,9.27295 24.1714,8.98628 24.1425,8.6996 24.4317,8.44058 24.8089,8.41292 25.1886,8.38777 25.5218,8.59901 25.5482,8.88694 Z"
     fill="#cf1233"/>
  <path
     d="M 29.0965,2.98636 C 27.9862,1.8824 27.0784,1.87359 26.0939,2.09866 25.1056,2.32121 22.1559,3.64521 19.5355,6.42523"
     stroke="#221814"
     stroke-width="0.484"
     stroke-miterlimit="10"
     stroke-linecap="round"/>
  <g fill="#ffffff">
    <path
      d="M 81.7031,2.07861 79.4247,11.3655 H 78.7546 C 78.6012,9.91698 78.3359,8.74764 77.9687,7.87629 77.3966,6.60887 76.646,5.6319 75.7067,4.94413 74.7713,4.25007 73.7603,3.91184 72.6715,3.91184 c -1.0462,0 -1.9753,0.40613 -2.7612,1.20455 -0.7883,0.79339 -1.1806,1.70624 -1.1806,2.71338 0,1.00212 0.2715,1.98033 0.8198,2.94603 0.5444,0.9681 1.842,2.4116 3.8739,4.3529 1.6182,1.5478 2.7184,2.8806 3.2779,3.9972 0.5558,1.1215 0.8374,2.3286 0.8374,3.635 0,1.4723 -0.391,2.8228 -1.1706,4.0688 -0.7833,1.2385 -1.9175,2.1953 -3.3986,2.8781 -1.4975,0.6815 -3.1837,1.0222 -5.071,1.0222 -1.1605,0 -2.6115,-0.1748 -4.3705,-0.5193 -1.7616,-0.3369 -2.9272,-0.5104 -3.5081,-0.5104 -0.4576,0 -0.8688,0.0678 -1.2309,0.2087 -0.3621,0.142 -0.8135,0.4162 -1.3479,0.821 h -0.7934 l 2.4456,-10.4524 h 0.7644 c 0.1748,1.837 0.547,3.3936 1.1078,4.6811 0.5733,1.2876 1.3831,2.2897 2.4254,3.0127 1.0575,0.7154 2.2595,1.0801 3.6011,1.0801 1.3303,0 2.4455,-0.4477 3.3458,-1.3253 0.8902,-0.8839 1.3416,-1.915 1.3416,-3.0969 0,-1.0147 -0.2515,-1.9816 -0.7594,-2.9133 -0.4992,-0.9304 -1.6572,-2.2808 -3.4578,-4.0612 -1.7992,-1.7817 -3.034,-3.366 -3.7243,-4.7692 -0.4991,-1.0398 -0.7493,-2.1375 -0.7493,-3.31187 0,-2.03692 0.7959,-3.79094 2.4015,-5.27085 1.6019,-1.48871 3.7017,-2.22301 6.2881,-2.22301 1.1718,0 2.7108,0.25776 4.627,0.78334 1.1191,0.30931 1.9024,0.4715 2.3626,0.4715 0.391,0 0.7444,-0.09178 1.0486,-0.25775 0.3144,-0.17477 0.6815,-0.50169 1.0927,-0.99709 z"/>
    <path
      d="m 87.0418,22.5205 c -0.1283,0.8814 -0.1874,1.5981 -0.1874,2.1651 0,1.0122 0.2942,1.8157 0.8814,2.4205 0.5834,0.611 1.3668,0.9103 2.3525,0.9103 0.9443,0 1.8911,-0.2263 2.8442,-0.6865 0.9392,-0.4577 2.0457,-1.2574 3.2968,-2.3991 l 0.611,0.5394 c -1.5528,1.876 -3.0604,3.2088 -4.5277,3.9997 -1.4648,0.8034 -3.0943,1.1995 -4.871,1.1995 -2.2507,0 -3.806,-0.5419 -4.6711,-1.6182 -0.8638,-1.0776 -1.29,-2.3274 -1.29,-3.7394 0,-2.2155 0.6412,-4.4158 1.9288,-6.6275 1.2825,-2.2092 3.039,-3.9783 5.2507,-5.3161 2.2217,-1.3328 4.4435,-2.0017 6.6828,-2.0017 1.1317,0 1.9829,0.2741 2.5663,0.8072 0.5771,0.5419 0.8714,1.2234 0.8714,2.0394 0,0.9858 -0.2892,1.9464 -0.8513,2.8731 -0.7808,1.2661 -1.7666,2.2833 -2.9535,3.0591 -1.1794,0.7758 -2.511,1.3718 -3.9808,1.7717 -0.982,0.2665 -2.3022,0.4664 -3.9531,0.6035 z m 0.1773,-1.0537 c 1.1856,-0.1697 2.1023,-0.4137 2.7573,-0.7129 0.6551,-0.3043 1.2951,-0.7884 1.92,-1.456 0.63,-0.6664 1.1681,-1.5089 1.6233,-2.5323 0.4576,-1.0122 0.6865,-1.9653 0.6865,-2.8492 0,-0.3835 -0.1006,-0.6765 -0.3093,-0.8877 -0.2138,-0.2213 -0.4703,-0.3282 -0.7984,-0.3282 -0.6488,0 -1.3768,0.4552 -2.1828,1.3605 -1.4862,1.6408 -2.7134,4.109 -3.6966,7.4058 z"/>
    <path
      d="m 112.418,2.07861 -5.579,19.11059 4.63,-4.2851 1.54,-1.3743 c 0.435,-0.4576 0.749,-0.8512 0.925,-1.1756 0.1,-0.2012 0.157,-0.386 0.157,-0.5646 0,-0.2816 -0.132,-0.518 -0.398,-0.7028 -0.273,-0.1874 -0.928,-0.3181 -1.969,-0.3885 l 0.225,-0.7595 h 8.224 l -0.204,0.7595 c -0.956,0.2263 -1.754,0.4916 -2.362,0.7883 -0.468,0.2351 -1.042,0.6111 -1.735,1.1342 -1.025,0.7959 -1.756,1.4069 -2.199,1.8395 l -0.887,0.8298 1.232,5.5714 c 0.463,2.1538 0.814,3.4049 1.042,3.7331 0.15,0.2087 0.325,0.3131 0.528,0.3131 0.471,0 1.029,-0.557 1.678,-1.6598 0.091,-0.1433 0.221,-0.3571 0.382,-0.6198 l 0.75,0.4614 c -1.012,1.8835 -2.149,3.3169 -3.416,4.3002 -0.843,0.6626 -1.619,0.992 -2.3,0.992 -0.689,0 -1.265,-0.2477 -1.72,-0.7393 -0.46,-0.4878 -0.911,-1.7804 -1.371,-3.8689 l -1.013,-4.5843 -2.222,1.9803 -2.022,6.9318 H 99.1829 L 105.887,7.28533 c 0.284,-0.96942 0.425,-1.62325 0.425,-1.95896 0,-0.3068 -0.063,-0.56455 -0.2,-0.75944 -0.138,-0.19741 -0.32,-0.34075 -0.557,-0.43505 -0.231,-0.09304 -0.703,-0.13705 -1.402,-0.13705 l 0.183,-0.75316 6.866,-1.16306 z"/>
    <path
      d="m 130.182,11.3642 -4.15,14.3729 c -0.232,0.8197 -0.345,1.3579 -0.345,1.6106 0,0.1509 0.068,0.293 0.182,0.4187 0.126,0.1258 0.255,0.1861 0.389,0.1861 0.231,0 0.457,-0.1006 0.689,-0.298 0.606,-0.5017 1.335,-1.3994 2.174,-2.7083 l 0.697,0.4023 c -2.037,3.5433 -4.199,5.3161 -6.491,5.3161 -0.872,0 -1.567,-0.2464 -2.093,-0.7355 -0.514,-0.4979 -0.774,-1.1115 -0.774,-1.871 0,-0.5016 0.114,-1.1303 0.342,-1.8998 l 2.805,-9.6628 c 0.275,-0.9217 0.405,-1.622 0.405,-2.0973 0,-0.2967 -0.122,-0.557 -0.38,-0.7858 -0.255,-0.2327 -0.606,-0.3433 -1.056,-0.3433 -0.199,0 -0.438,0.0025 -0.72,0.0163 l 0.256,-0.8072 6.856,-1.114 z m -1.261,-9.28559 c 0.84,0 1.54,0.28166 2.112,0.86507 0.572,0.57964 0.863,1.27999 0.863,2.09978 0,0.82483 -0.29,1.52518 -0.874,2.09979 -0.57,0.57964 -1.273,0.87386 -2.1,0.87386 -0.81,0 -1.499,-0.29422 -2.079,-0.87386 -0.573,-0.57461 -0.866,-1.27496 -0.866,-2.09979 0,-0.81979 0.287,-1.52014 0.854,-2.09978 0.578,-0.58467 1.27,-0.86507 2.09,-0.86507 z"/>
    <path
      d="m 140.931,11.3665 -3.054,11.3564 c 2.504,-5.5361 4.388,-8.9524 5.659,-10.2198 0.734,-0.7582 1.528,-1.1366 2.34,-1.1366 0.559,0 1.022,0.2112 1.373,0.611 0.351,0.4137 0.528,0.9971 0.528,1.754 0,1.314 -0.322,2.4041 -0.955,3.2918 -0.395,0.5721 -0.853,0.8538 -1.351,0.8538 -0.536,0 -0.935,-0.2528 -1.213,-0.7507 -0.273,-0.4979 -0.454,-0.7934 -0.57,-0.8789 -0.098,-0.088 -0.216,-0.132 -0.337,-0.132 -0.137,0 -0.283,0.044 -0.422,0.1232 -0.297,0.1635 -0.686,0.5558 -1.165,1.1794 -0.476,0.6325 -1.071,1.6748 -1.765,3.1447 -0.703,1.4686 -1.25,2.7083 -1.642,3.7268 -0.394,1.0172 -0.93,2.956 -1.635,5.8102 h -4.891 l 3.332,-13.3971 c 0.248,-0.9946 0.365,-1.6522 0.365,-1.9804 0,-0.3633 -0.063,-0.6475 -0.192,-0.8537 -0.129,-0.1949 -0.302,-0.3407 -0.526,-0.435 -0.219,-0.0981 -0.684,-0.1472 -1.379,-0.1472 l 0.179,-0.5834 6.104,-1.3353 z"/>
    <path
      d="m 148.28,13.1859 6.223,-1.8207 c 0.503,0.6237 0.852,1.2071 1.053,1.7641 0.359,0.9543 0.619,2.2796 0.766,3.9594 0.281,3.3094 0.482,6.8501 0.59,10.6058 1.437,-1.9023 3.087,-4.4108 4.949,-7.5353 0.574,-0.9418 0.84,-1.8345 0.84,-2.6669 0,-0.5306 -0.322,-1.0272 -0.975,-1.4912 -0.651,-0.479 -1.063,-0.8487 -1.223,-1.1065 -0.16,-0.2653 -0.24,-0.601 -0.24,-1.0247 0,-0.6702 0.242,-1.2561 0.739,-1.7578 0.489,-0.4916 1.093,-0.7469 1.788,-0.7469 0.742,0 1.386,0.2867 1.93,0.8488 0.548,0.567 0.82,1.2372 0.82,2.0029 0,0.9003 -0.253,1.9527 -0.761,3.1434 -0.51,1.1945 -1.685,3.239 -3.548,6.1296 -2.38,3.7055 -4.723,6.9105 -7.009,9.6188 -1.463,1.7251 -2.654,2.9737 -3.553,3.7293 -0.904,0.7595 -1.839,1.358 -2.811,1.8056 -0.58,0.2552 -1.152,0.3885 -1.722,0.3885 -0.759,0 -1.422,-0.2741 -1.962,-0.8122 -0.546,-0.5445 -0.82,-1.1744 -0.82,-1.92 0,-0.7393 0.24,-1.3655 0.744,-1.881 0.482,-0.5093 1.059,-0.762 1.719,-0.762 0.817,0 1.579,0.43 2.264,1.2989 0.457,0.5771 0.835,0.865 1.135,0.865 0.306,0 0.603,-0.0905 0.901,-0.2653 0.412,-0.2213 0.977,-0.7129 1.698,-1.4937 0.08,-1.6861 0.132,-2.9561 0.132,-3.8224 0,-1.1555 -0.06,-2.79 -0.175,-4.8898 l -0.335,-7.6963 c -0.12,-1.4145 -0.427,-2.433 -0.909,-3.0516 -0.381,-0.4602 -0.874,-0.6865 -1.481,-0.6865 -0.226,0 -0.484,0.0176 -0.766,0.0641 v -0.7934 z"/>
    <path
      d="m 176.588,11.3665 -3.916,13.7404 c -0.189,0.6349 -0.29,1.0725 -0.29,1.3139 0,0.1157 0.049,0.2137 0.15,0.2879 0.106,0.1056 0.234,0.1559 0.376,0.1559 0.626,0 1.448,-0.5544 2.49,-1.6521 1.481,-1.5994 3.035,-3.9104 4.666,-6.9155 l 1.839,-6.1874 5.109,-0.1698 -3.878,13.333 c -0.319,1.1279 -0.481,1.7767 -0.481,1.9351 0,0.1094 0.049,0.2163 0.147,0.3345 0.105,0.1119 0.203,0.1772 0.317,0.1772 0.193,0 0.365,-0.0855 0.543,-0.2451 0.489,-0.3923 1.126,-1.1782 1.922,-2.3651 l 0.688,0.4841 c -1.871,3.3785 -3.932,5.0772 -6.184,5.0772 -0.837,0 -1.493,-0.2113 -1.971,-0.6413 -0.479,-0.4262 -0.712,-0.977 -0.712,-1.6723 0,-0.723 0.162,-1.6446 0.497,-2.7636 l 0.999,-3.4138 c -1.755,2.5474 -3.027,4.2574 -3.813,5.1502 -1.226,1.3441 -2.245,2.2255 -3.069,2.6718 -0.828,0.4452 -1.616,0.669 -2.376,0.669 -0.711,0 -1.326,-0.2691 -1.852,-0.7947 -0.52,-0.523 -0.77,-1.1907 -0.77,-1.9979 0,-0.6928 0.164,-1.6082 0.503,-2.7687 l 2.28,-8.0836 c 0.379,-1.3177 0.56,-2.2117 0.56,-2.6668 0,-0.2037 -0.047,-0.381 -0.152,-0.5319 -0.113,-0.1559 -0.289,-0.2779 -0.543,-0.3659 -0.241,-0.0855 -0.706,-0.1383 -1.379,-0.1383 l 0.202,-0.7607 6.889,-1.192 h 1.209 z"/>
    <path
      d="m 202.802,12.9645 c 0.103,0 0.219,0.0893 0.363,0.2766 1.633,-0.738 2.849,-1.109 3.644,-1.109 0.383,0 0.717,0.0805 1.002,0.2339 0.283,0.1572 0.428,0.342 0.428,0.5558 0,0.1395 -0.072,0.4614 -0.214,0.9581 -0.059,0.2137 -0.121,0.4627 -0.191,0.7468 -0.075,0.3244 -0.145,0.6753 -0.214,1.0449 0.098,-0.1144 0.206,-0.2276 0.319,-0.3407 0.17,-0.1735 0.276,-0.288 0.32,-0.3408 l 0.064,-0.0855 c 0.012,0.0302 0.022,0.0717 0.022,0.1283 0,0.1986 -0.154,0.5117 -0.471,0.9367 l -0.958,1.3001 c -0.229,0.3144 -0.503,0.591 -0.83,0.8299 l -0.533,0.4501 c -0.626,0.5105 -1.051,0.7657 -1.28,0.7657 -0.044,0 -0.177,-0.0503 -0.405,-0.1483 l -0.064,1.1266 -0.128,3.7984 0.022,3.9431 c 0,0.4112 -0.071,0.7142 -0.214,0.9166 -0.028,0.0151 -0.056,0.0201 -0.085,0.0201 l -0.02,0.0214 h -0.023 c -0.157,0 -0.397,-0.2414 -0.727,-0.7242 -0.35,-0.5507 -0.53,-1.0851 -0.53,-1.5944 0,-0.1848 0.067,-0.5871 0.188,-1.1982 0.086,-0.5092 0.153,-1.1995 0.194,-2.0684 l 0.131,-4.2197 0.041,-1.1919 0.062,-5.0093 c 0.03,-0.0164 0.057,-0.0227 0.087,-0.0227 z m 1.94,1.661 c 0.454,-0.2578 0.732,-0.4049 0.832,-0.4451 0.083,-0.0289 0.24,-0.0453 0.469,-0.0453 h 0.02 v 0.0201 h 0.023 0.023 0.064 l -0.023,-0.997 c -0.085,-0.0164 -0.186,-0.0252 -0.299,-0.0252 h -0.02 -0.023 -0.023 -0.02 -0.025 l -0.017,0.0252 h -0.026 -0.02 -0.022 l -0.747,0.3394 c -0.17,0.0868 -0.489,0.127 -0.958,0.127 h -0.447 c 0.155,0.2565 0.276,0.4778 0.361,0.6627 0.059,0.1131 0.142,0.3055 0.258,0.5733 v 0.0239 c 0.313,-0.1169 0.522,-0.2024 0.62,-0.259 z m 0.085,1.0008 c -0.059,0 -0.115,0.0089 -0.172,0.0239 -0.116,0.0151 -0.189,0.0214 -0.234,0.0214 h -0.022 -0.021 -0.046 -0.018 c -0.017,-0.0138 -0.029,-0.0214 -0.044,-0.0214 h -0.044 -0.02 -0.044 -0.02 -0.02 l -0.131,1.749 c 0.357,-0.4589 0.635,-1.0474 0.836,-1.7729 z m 1.041,1.3655 0.217,-1.6408 c -0.811,0.9933 -1.425,1.8181 -1.832,2.4707 0.654,-0.2678 1.19,-0.547 1.615,-0.8299 z m -0.724,10.2098 c 0.528,-0.2829 0.941,-0.6023 1.237,-0.9594 0.312,-0.3696 0.74,-1.0524 1.28,-2.047 -0.611,0.2993 -1.053,0.4464 -1.324,0.4464 -0.324,0 -0.657,-0.3345 -0.999,-1.0034 0.098,0.0176 0.206,0.0239 0.319,0.0239 0.781,0 1.633,-0.347 2.556,-1.0436 0.059,-0.0566 0.153,-0.1282 0.278,-0.2125 l -0.064,-0.3835 c -0.554,-0.1156 -0.966,-0.3935 -1.235,-0.8336 l 0.065,-0.0855 c 1.234,-0.4803 2.166,-1.3919 2.795,-2.726 -0.443,0.171 -0.867,0.5319 -1.28,1.0851 -0.386,0.5269 -0.698,0.7897 -0.938,0.7897 -0.157,0 -0.315,-0.1132 -0.469,-0.3408 -0.145,-0.2125 -0.214,-0.4426 -0.214,-0.684 0,-0.4551 0.088,-0.8223 0.275,-1.1077 0.042,-0.0704 0.086,-0.1056 0.129,-0.1056 0.059,0 0.093,0.0201 0.108,0.0628 l 0.149,0.342 c 0.074,0.1396 0.214,0.2125 0.428,0.2125 0.353,0 0.737,-0.1219 1.149,-0.3633 0.709,-0.3974 1.267,-0.5973 1.662,-0.5973 0.184,0 0.361,0.0641 0.533,0.1936 0.256,0.1685 0.384,0.3194 0.384,0.4477 0,0.0553 -0.062,0.1622 -0.194,0.3181 l -0.275,0.3193 c -0.255,0.327 -0.709,0.7758 -1.363,1.3404 0.255,-0.0264 0.432,-0.0402 0.531,-0.0402 0.54,0 0.812,0.1508 0.812,0.4463 0,0.171 -0.457,0.5495 -1.366,1.1304 h -0.022 v 0.0213 h -0.023 v 0.0214 h -0.018 l -0.02,0.0214 h -0.025 v 0.0201 h -0.023 l -0.022,0.0252 c 0.088,0.1131 0.134,0.2477 0.15,0.4036 0.837,-0.2553 1.437,-0.3835 1.792,-0.3835 0.34,0 0.642,0.0855 0.894,0.2552 0.241,0.1572 0.361,0.3483 0.361,0.5759 0,0.1572 -0.12,0.2339 -0.361,0.2339 l -1.51,0.0842 c -0.115,0.0164 -0.28,0.044 -0.494,0.0855 -0.255,0.0729 -0.597,0.1635 -1.023,0.2791 -0.129,0.3257 -0.271,0.6363 -0.423,0.9368 1.162,0.0427 2.07,0.3068 2.726,0.7871 0.724,0.5419 1.085,1.1479 1.085,1.8143 0,0.4414 -0.177,0.6576 -0.533,0.6576 -0.196,0 -0.391,-0.0553 -0.577,-0.1697 l -0.894,-0.5759 c -0.137,-0.0993 -0.497,-0.2049 -1.066,-0.3193 l -0.023,-0.0868 0.044,-0.0402 0.98,-0.0855 c -0.668,-0.6815 -1.343,-1.187 -2.023,-1.5114 -0.526,0.9091 -1.074,1.5315 -1.644,1.8748 -0.554,0.3407 -1.314,0.5255 -2.281,0.5507 v -0.1006 z m 7.142,-14.9425 h 0.025 0.02 l 1.979,-0.5758 c 0.43,-0.1295 0.884,-0.1899 1.368,-0.1899 0.528,0 1.002,0.1258 1.427,0.3848 0.413,0.2389 0.619,0.5243 0.619,0.8512 0,0.0415 -0.064,0.4476 -0.194,1.2159 -0.012,0.0842 -0.034,0.2187 -0.061,0.4048 -0.044,0.1861 -0.072,0.3207 -0.086,0.4062 v 0.0201 0.0214 0.0414 c -0.015,0.0579 -0.02,0.1057 -0.02,0.1509 0,0.0981 -0.01,0.1987 -0.022,0.2968 -0.016,0.127 -0.026,0.2565 -0.026,0.3847 l -0.147,2.9825 v 0.3847 0.9606 c 0.015,0.2817 0.032,0.5671 0.042,0.8513 0,0.2841 0.007,0.5645 0.022,0.8323 0.029,0.64 0.054,1.2096 0.083,1.705 0.015,0.1849 0.026,0.3609 0.026,0.5331 0.041,0.5382 0.064,0.8877 0.064,1.0449 0.026,0.215 0.056,0.4401 0.083,0.6828 0.071,0.6073 0.134,1.1831 0.193,1.7263 0.042,0.5532 0.062,0.9732 0.062,1.2561 0,0.9342 -0.234,1.407 -0.703,1.407 -0.309,0 -0.86,-0.3798 -1.641,-1.1291 -0.698,-0.6539 -1.407,-1.192 -2.129,-1.6195 l -0.025,-0.1295 c 0.498,0.0993 0.946,0.1471 1.343,0.1471 h 0.297 c 0.443,0 0.663,-0.1609 0.663,-0.4878 l 0.085,-3.5823 0.02,-6.1585 c -0.768,0.1974 -1.321,0.3621 -1.662,0.4891 -0.327,0.1144 -0.773,0.3055 -1.343,0.5759 0.029,-0.1006 0.072,-0.1786 0.128,-0.2339 0.057,-0.0289 0.256,-0.1421 0.598,-0.342 l 0.02,-0.0239 c 0.157,-0.1094 0.28,-0.215 0.366,-0.3168 h -0.344 c -0.231,0 -0.466,-0.044 -0.724,-0.1295 -0.083,0.4979 -0.255,0.7481 -0.508,0.7481 -0.16,0 -0.358,-0.1496 -0.6,-0.4464 -0.386,-0.5142 -0.562,-0.9417 -0.533,-1.28 v -0.5343 c 0.042,-1.0663 0.173,-1.9163 0.386,-2.5563 l 0.403,-1.2799 0.169,0.2778 c 0.029,0.0554 0.049,0.1409 0.067,0.2528 0.067,0 0.138,-0.0076 0.21,-0.0202 z m 2.386,1.28 c 0.415,0 0.619,0.1295 0.619,0.386 0,0.1384 -0.182,0.4099 -0.552,0.8073 -0.255,0.2577 -0.619,0.6978 -1.085,1.324 0.395,-0.117 0.724,-0.1723 0.977,-0.1723 0.189,0 0.513,0.0717 0.979,0.2112 -0.012,-0.3244 -0.026,-0.6563 -0.044,-0.9996 v -0.4249 c -0.012,-0.1145 -0.017,-0.2364 -0.017,-0.3634 -0.015,-0.0993 -0.023,-0.1999 -0.023,-0.3005 -0.017,-0.1685 -0.022,-0.3508 -0.022,-0.5508 0.044,-0.7682 -0.106,-1.1517 -0.449,-1.1517 h -0.083 l -0.958,0.4262 c -0.142,0.0705 -0.371,0.1094 -0.683,0.1094 -0.286,0 -0.619,-0.0238 -1.002,-0.0679 0.139,0.4565 0.247,0.9468 0.319,1.4724 0.983,-0.4728 1.656,-0.7054 2.024,-0.7054 z m -0.999,1.4259 c -0.214,0.0591 -0.384,0.0855 -0.513,0.0855 -0.054,0 -0.177,-0.0201 -0.361,-0.0616 -0.042,0 -0.086,-0.0063 -0.128,-0.0252 l 0.085,1.2171 c 0.326,-0.3244 0.633,-0.728 0.917,-1.2158 z"/>
    <path
      d="m 223.852,19.763 c 0.217,-0.0566 0.43,-0.1157 0.644,-0.1735 0.639,-0.1534 1.022,-0.254 1.149,-0.2942 l 1.747,-0.601 c 0.128,-0.0415 0.299,-0.0906 0.513,-0.1459 0.24,-0.088 0.476,-0.1647 0.703,-0.2364 0.183,-0.0553 0.368,-0.1119 0.554,-0.1685 0.709,-0.4841 1.181,-0.8311 1.41,-1.0448 0.237,-0.2138 0.432,-0.4741 0.574,-0.7897 -0.84,0.3559 -1.402,0.6476 -1.684,0.8714 l -0.941,0.7494 -0.531,0.4061 c -0.24,0.1974 -0.42,0.2967 -0.533,0.2967 -0.327,0 -0.505,-0.4476 -0.535,-1.3416 0.667,-0.5293 1.151,-0.9191 1.451,-1.1743 0.296,-0.2704 0.67,-0.6312 1.107,-1.0876 -0.311,0.0452 -0.577,0.0653 -0.785,0.0653 -0.116,0 -0.194,-0.0088 -0.237,-0.0201 l -0.724,-0.1106 c -0.327,-0.0554 -0.521,-0.1685 -0.577,-0.3383 l 0.172,-0.1081 3.816,-1.2586 c 0.255,-0.083 0.516,-0.1283 0.789,-0.1283 0.579,0 0.873,0.1509 0.873,0.4514 0,0.1685 -0.355,0.4791 -1.068,0.9343 -0.212,0.1697 -0.41,0.3407 -0.595,0.5104 -0.072,0.0566 -0.206,0.1635 -0.405,0.3207 -0.128,0.1144 -0.263,0.2263 -0.405,0.3407 0.054,-0.0138 0.106,-0.0214 0.147,-0.0214 0.501,-0.0855 0.825,-0.1496 0.982,-0.1936 0.395,-0.0717 0.686,-0.1044 0.874,-0.1044 0.24,0 0.477,0.0705 0.7,0.2125 0.232,0.156 0.344,0.3068 0.344,0.4451 0,0.1572 -0.403,0.5772 -1.214,1.2624 0.096,-0.0163 0.227,-0.0339 0.384,-0.0666 0.039,-0.0126 0.077,-0.0189 0.105,-0.0189 0.027,-0.0176 0.057,-0.0264 0.086,-0.0264 0.17,-0.0402 0.275,-0.0628 0.317,-0.0628 0.131,0 0.415,0.0792 0.855,0.2363 0.229,0.073 0.407,0.1723 0.533,0.2968 l 0.15,0.2992 -1.258,0.298 -1.002,0.1484 c -0.695,0.1421 -1.149,0.2427 -1.365,0.2967 -0.214,0.0579 -0.533,0.1673 -0.961,0.3194 -0.283,0.2301 -0.469,0.4489 -0.552,0.6626 -0.085,0.2138 -0.135,0.5696 -0.15,1.065 0.74,-0.3697 1.273,-0.6161 1.599,-0.7444 0.314,-0.1131 0.608,-0.1722 0.896,-0.1722 0.353,0 0.695,0.1509 1.022,0.4464 0.184,0.1571 0.283,0.7317 0.297,1.7276 l 0.044,3.1547 0.106,2.7297 v 0.3194 c 0,1.4069 -0.29,2.1111 -0.874,2.1111 -0.369,0 -0.833,-0.4703 -1.407,-1.4083 -0.196,-0.3105 -0.398,-0.611 -0.595,-0.8939 -0.243,-0.327 -0.577,-0.7759 -1.005,-1.3429 l 0.194,0.0415 c 0.68,0.342 1.208,0.6551 1.577,0.938 0.113,0.1144 0.17,0.1571 0.17,0.1295 0.1,-0.0579 0.183,-0.3408 0.255,-0.855 v -1.3215 -0.0201 -0.0227 -0.0415 -0.0842 -0.1936 c 0,-0.1836 0.007,-0.3672 0.025,-0.552 -1.268,1.1794 -2.036,1.7666 -2.304,1.7666 -0.071,0 -0.183,-0.0252 -0.34,-0.0817 v 0.4891 0.0226 0.0402 0.0654 0.1484 c 0,0.127 0.005,0.2477 0.022,0.3621 v 0.4288 c 0,0.4652 -0.1,0.8386 -0.296,1.1077 -0.415,-0.0566 -0.764,-0.3345 -1.047,-0.8311 -0.282,-0.513 -0.427,-1.1065 -0.427,-1.7918 0,-1.6044 0.327,-3.2867 0.982,-5.052 0.116,-0.3244 0.231,-0.6476 0.361,-0.9569 0.142,-0.3709 0.283,-0.733 0.427,-1.0888 -0.113,0.0415 -0.236,0.0955 -0.363,0.1483 -0.086,0.0289 -0.162,0.0654 -0.234,0.1069 -0.029,0 -0.057,0.0088 -0.085,0.0201 -0.013,0 -0.029,0.0113 -0.042,0.0252 l -1.257,0.6576 c -0.384,0.215 -0.811,0.3231 -1.283,0.3231 -0.425,0 -1.058,-0.2502 -1.893,-0.7481 z m 5.501,-8.5488 c 0.654,0 1.226,0.1157 1.707,0.3408 0.496,0.2301 0.747,0.4979 0.747,0.8097 0,0.3433 -0.224,0.5105 -0.661,0.5105 -0.203,0 -0.378,-0.0478 -0.533,-0.1484 -0.017,0 -0.029,-0.0075 -0.041,-0.0188 h -0.047 c -0.01,-0.0151 -0.026,-0.0264 -0.041,-0.0415 -0.015,0 -0.027,-0.0076 -0.042,-0.0227 h -0.025 l -1.319,0.4464 h -0.022 -0.021 -0.085 v -0.1081 c 0.324,-0.1999 0.582,-0.3898 0.768,-0.5734 -0.029,-0.0276 -0.056,-0.0591 -0.085,-0.0867 l -0.023,-0.0214 -0.874,-0.4891 c -0.085,-0.0428 -0.191,-0.1081 -0.322,-0.1949 0.2,-0.2666 0.507,-0.4024 0.919,-0.4024 z m 0.555,12.3209 c -0.186,0.0427 -0.33,0.0654 -0.428,0.0654 -0.056,0 -0.134,-0.0063 -0.236,-0.0227 -0.057,-0.0151 -0.103,-0.0226 -0.147,-0.0226 l -0.023,1.236 c 0.357,-0.4112 0.635,-0.8286 0.834,-1.2561 z m 0.68,-1.4699 c 0.186,0 0.506,0.1471 0.961,0.4464 v -0.552 c 0,-0.6702 -0.147,-1.0046 -0.447,-1.0046 -0.056,0 -0.159,0.0566 -0.299,0.1735 -0.425,0.3546 -0.781,0.5331 -1.064,0.5331 -0.213,0 -0.386,-0.0088 -0.513,-0.0251 l -0.083,1.1316 c 0.596,-0.4677 1.079,-0.7029 1.445,-0.7029 z m -0.294,2.4079 c 0.52,-0.3093 0.948,-0.6023 1.28,-0.8726 l -0.025,-1.0235 c -0.157,0.3093 -0.261,0.4979 -0.32,0.5545 l -0.916,1.2133 v 0.0226 c -0.013,0 -0.02,0.0076 -0.02,0.0214 -0.02,0.0151 -0.032,0.0352 -0.044,0.0654 -0.013,0.0126 -0.027,0.0365 -0.042,0.0629 0.03,-0.0151 0.055,-0.0277 0.087,-0.044 z m 6.284,-5.6267 c 0.585,-0.386 1.026,-0.7255 1.324,-1.0222 0.298,-0.2968 0.646,-0.7243 1.044,-1.28 -0.712,0.2841 -1.248,0.5142 -1.618,0.6815 -0.344,0.1571 -0.676,0.3357 -1.003,0.5331 -0.216,0.1295 -0.365,0.1924 -0.466,0.1924 -0.356,0 -0.665,-0.3483 -0.92,-1.0437 0.371,-1.0662 0.621,-1.9174 0.746,-2.5587 0.143,-0.6538 0.212,-1.285 0.212,-1.8973 v -0.5734 c -0.013,-0.2301 -0.027,-0.4702 -0.037,-0.7267 0.606,0.2992 1.012,0.6136 1.214,0.9367 0.211,0.3143 0.332,0.8261 0.363,1.534 0.238,-0.0818 0.5,-0.1836 0.786,-0.2955 0.071,-0.0277 0.132,-0.0553 0.191,-0.0842 0.427,0.0716 0.783,0.1697 1.066,0.2979 0.286,0.1283 0.428,0.2628 0.428,0.4062 0,0.0968 -0.106,0.2099 -0.32,0.3407 -0.213,0.1396 -0.456,0.2402 -0.726,0.2967 -0.271,0.0717 -0.761,0.1057 -1.472,0.1057 h -0.105 l -0.405,1.3868 1.77,-0.5092 c 0.157,-0.0591 0.369,-0.1132 0.639,-0.1748 0.072,-0.0276 0.142,-0.049 0.214,-0.0603 l 0.255,-0.0654 c 1.039,0.0968 1.554,0.3621 1.554,0.7884 0,0.1999 -0.204,0.469 -0.616,0.8097 -0.484,0.4288 -1.002,0.9304 -1.557,1.5138 0.469,0.0302 0.706,0.1572 0.706,0.3861 0,0.1848 -0.093,0.3256 -0.281,0.4249 l -1.316,0.7042 c -0.086,0.0565 -0.234,0.2049 -0.428,0.4476 0.823,-0.2703 1.433,-0.4074 1.83,-0.4074 0.229,0 0.432,0.0578 0.621,0.1723 0.199,0.1295 0.294,0.264 0.294,0.4061 0,0.0993 -0.095,0.2175 -0.294,0.3621 -0.189,0.1396 -0.57,0.3684 -1.154,0.6802 -0.423,0.2138 -0.838,0.542 -1.235,0.9795 l -0.025,0.0239 c -0.037,0.0289 -0.054,0.049 -0.037,0.0641 0,0.0277 0.047,0.0491 0.148,0.0629 0.142,-0.0138 0.285,-0.0214 0.425,-0.0214 h 0.152 0.149 c 1.134,0 1.704,0.2138 1.704,0.6413 0,0.1408 -0.054,0.2401 -0.15,0.298 -0.113,0.0565 -0.427,0.1408 -0.938,0.254 -0.13,0.0276 -0.272,0.0716 -0.425,0.127 l -0.917,0.3633 -0.065,-0.0427 c 0.042,-0.0277 0.08,-0.0641 0.109,-0.1069 0.182,-0.1685 0.324,-0.2842 0.422,-0.3407 -0.966,-0.1685 -1.448,-0.4527 -1.448,-0.8513 0,-0.1835 0.13,-0.4061 0.386,-0.6613 0.213,-0.2251 0.461,-0.5193 0.746,-0.8739 -0.074,-0.0151 -0.142,-0.0214 -0.213,-0.0214 -0.24,-0.0276 -0.454,-0.0628 -0.639,-0.1056 -0.415,0.9795 -0.693,1.759 -0.832,2.345 -0.145,0.6098 -0.217,1.2787 -0.217,2.003 0,0.7946 0.18,1.334 0.536,1.6182 0.497,0.4551 1.181,0.6827 2.048,0.6827 0.469,0 1.029,-0.0427 1.685,-0.1282 0.649,-0.0705 1.177,-0.1622 1.574,-0.2779 0.286,-0.0855 0.428,-0.3395 0.428,-0.767 0,-0.4539 -0.271,-1.2574 -0.811,-2.4091 h 0.108 c 0.497,0.811 0.84,1.3076 1.023,1.4937 l 1.51,1.6836 c 0.143,0.171 0.217,0.3345 0.217,0.4879 0,0.6689 -0.83,1.0989 -2.495,1.2838 l -0.616,0.0804 c -0.302,0.0164 -0.793,0.0378 -1.471,0.0667 -1.066,-0.0277 -1.891,-0.1308 -2.473,-0.2993 -0.6,-0.1697 -1.103,-0.4627 -1.513,-0.8738 -0.685,-0.64 -1.026,-1.5692 -1.026,-2.7914 0,-0.5092 0.059,-1.1241 0.172,-1.8319 0.131,-0.7545 0.327,-1.6824 0.598,-2.7926 -0.059,0 -0.137,0.005 -0.237,0.0201 h -0.041 -0.039 -0.025 -0.02 -0.023 c -0.214,0 -0.428,-0.1484 -0.639,-0.4464 l -0.494,-0.6173 v -0.0856 c 0.782,-0.1332 1.578,-0.4425 2.385,-0.9417 z m 0.727,7.8861 c 0.041,-0.0264 0.083,-0.0565 0.131,-0.0855 0.025,-0.0264 0.059,-0.0553 0.105,-0.0855 0.027,-0.0138 0.054,-0.0327 0.083,-0.0641 0.443,-0.2816 0.66,-0.5381 0.66,-0.7645 0,-0.0553 -0.02,-0.0943 -0.064,-0.1081 l -0.574,-0.4287 h -0.023 v -0.0164 h -0.02 c 0,-0.0163 -0.01,-0.0251 -0.023,-0.0251 v -0.0214 c -0.015,0 -0.029,-0.0063 -0.041,-0.0227 -0.015,-0.0125 -0.032,-0.0213 -0.047,-0.0213 0,-0.0139 -0.007,-0.0202 -0.017,-0.0202 0,-0.015 -0.01,-0.0226 -0.025,-0.0226 l 0.025,-0.1282 c 0.454,-0.0428 0.862,-0.0641 1.234,-0.0641 0.498,0 0.917,0.0993 1.255,0.2967 0.341,0.1974 0.516,0.4464 0.516,0.7469 0,0.298 -0.229,0.4451 -0.683,0.4451 h -0.023 -0.022 -0.02 -0.023 c -0.015,0 -0.023,-0.0076 -0.023,-0.0214 h -0.022 -0.023 -0.02 -0.023 c -0.837,0.0138 -1.633,0.1924 -2.384,0.5344 l -0.046,-0.0214 c 0.054,-0.0252 0.095,-0.0591 0.137,-0.1019 z"/>
    <path
      d="m 251.509,17.945 1.196,-3.1144 c 0.294,-0.7532 0.449,-1.3077 0.449,-1.6623 0,-0.2112 -0.155,-0.5482 -0.449,-0.9996 h 0.039 l 0.025,-0.0213 h 0.064 l 0.02,-0.0227 h 0.023 0.023 c 0.083,0 0.262,0.0579 0.533,0.1736 l 0.7,0.2753 c 0.712,0.298 1.066,0.6463 1.066,1.0436 0,0.1987 -0.132,0.5922 -0.402,1.1731 l -1.108,2.3249 c -0.739,1.5327 -1.834,2.99 -3.283,4.3681 -0.252,0.2552 -0.489,0.4413 -0.705,0.5544 -0.199,0.0994 -0.557,0.2364 -1.085,0.4049 l -0.067,-0.0855 c 1.405,-1.4774 2.392,-2.946 2.961,-4.4121 z m 0.982,1.4058 c 0.227,0.3294 0.379,0.6538 0.447,0.9832 0.071,0.3408 0.105,0.8714 0.105,1.5981 v 0.5331 c 0.33,-0.611 0.551,-1.0461 0.66,-1.3026 0.14,-0.3281 0.292,-0.723 0.447,-1.1919 0,0.0125 0.007,0.0264 0.025,0.0389 v 0.0453 0.0415 h 0.023 v 0.0214 0.0226 0.0239 c 0,0.1257 -0.057,0.303 -0.175,0.5293 -0.054,0.1157 -0.162,0.4979 -0.32,1.1518 l -0.404,1.8772 c -0.14,0.5809 -0.212,1.0864 -0.212,1.5114 0,0.655 -0.025,1.1291 -0.064,1.4296 -0.1,0.6098 -0.312,0.9166 -0.641,0.9166 -0.27,0 -0.518,-0.2905 -0.744,-0.8714 -0.243,-0.5696 -0.364,-1.1655 -0.364,-1.793 0,-0.7091 0.086,-1.4774 0.255,-2.3022 0.173,-0.8374 0.469,-1.9112 0.894,-3.2188 z m 5.541,-4.9226 c 0.158,-0.3696 0.295,-0.733 0.408,-1.0876 0.116,-0.3835 0.17,-0.6601 0.17,-0.8324 0,-0.1986 -0.101,-0.5607 -0.3,-1.0863 0.482,0.1157 0.882,0.298 1.194,0.5557 0.314,0.2553 0.469,0.5382 0.469,0.8513 0,0.3407 -0.07,0.7129 -0.212,1.1089 -0.13,0.3861 -0.425,1.0738 -0.899,2.0684 0.712,-0.1861 1.253,-0.3407 1.621,-0.469 0.346,-0.1132 0.781,-0.2904 1.324,-0.5331 0.881,-0.3684 1.562,-0.552 2.048,-0.552 0.354,0 0.696,0.0981 1.023,0.2993 0.24,0.1546 0.36,0.2866 0.36,0.4023 0,0.2993 -0.687,0.5545 -2.068,0.7645 -0.211,0.0453 -0.451,0.0943 -0.722,0.1521 -0.343,0.0704 -0.7,0.1547 -1.068,0.2553 -0.183,0.5683 -0.276,1.0033 -0.276,1.2988 0,0.1308 0.005,0.2213 0.02,0.2779 l 0.067,0.5117 c 0.013,0.0566 0.018,0.205 0.018,0.4464 v 0.5759 c 1.195,-0.7104 2.21,-1.065 3.05,-1.065 0.285,0 0.541,0.0566 0.768,0.1685 0.24,0.1282 0.361,0.264 0.361,0.4074 0,0.1534 -0.211,0.3407 -0.639,0.5532 -1.69,0.8776 -2.537,1.627 -2.537,2.2356 0,0.6425 0.567,0.9744 1.704,1.0021 0.724,0.0163 1.363,0.1157 1.917,0.2992 0.543,0.1974 0.811,0.4213 0.811,0.6602 0,0.215 -0.15,0.3684 -0.446,0.4702 -0.044,0.0138 -0.186,0.034 -0.428,0.0629 -0.299,0.0566 -0.602,0.1056 -0.916,0.1483 -0.14,0.0164 -0.286,0.0327 -0.425,0.0654 -0.163,0.0139 -0.31,0.0352 -0.452,0.0654 -0.437,0.0553 -1.123,0.332 -2.043,0.8286 l -0.041,-0.1069 c 0.749,-0.4828 1.283,-0.8738 1.596,-1.1718 -0.68,-0.2301 -1.149,-0.4615 -1.404,-0.7041 -0.255,-0.2276 -0.381,-0.5244 -0.381,-0.8928 0,-0.4991 0.189,-1.3026 0.572,-2.4103 -0.383,0.0993 -0.744,0.1483 -1.085,0.1483 h -0.086 c -0.074,0.894 -0.115,1.5843 -0.128,2.0697 -0.031,0.4979 -0.044,0.9442 -0.044,1.3403 0,0.2276 0.008,0.3822 0.02,0.4702 l 0.106,3.3006 v 0.6199 c 0,0.3696 -0.047,0.689 -0.147,0.9619 -0.113,0.2678 -0.243,0.4036 -0.384,0.4036 -0.069,0 -0.278,-0.2201 -0.616,-0.6626 -0.569,-0.6815 -0.855,-1.3957 -0.855,-2.1526 0,-0.0969 0.008,-0.1912 0.02,-0.2792 l 0.366,-2.4468 0.167,-2.7071 c 0.029,-0.6098 0.101,-1.236 0.214,-1.8772 0.101,-0.5822 0.288,-1.4372 0.555,-2.5575 -0.781,0.3848 -1.358,0.6979 -1.727,0.938 -0.383,0.2565 -0.773,0.5696 -1.172,0.938 -0.311,0.3131 -0.569,0.4677 -0.768,0.4677 -0.51,0 -0.817,-0.5092 -0.914,-1.5352 1.063,-1.0751 1.809,-2.101 2.234,-3.0642 z"/>
    <path
      d="m 273.724,16.8045 c -0.071,-0.2137 -0.095,-0.3671 -0.095,-0.7166 v -0.3571 c 0,-0.5696 -0.317,-0.7079 -0.693,-0.7079 h -1.307 v 1.7816 h -0.513 v -4.1656 h 1.977 c 0.845,0 1.159,0.601 1.159,1.1254 0,0.3093 -0.113,0.6274 -0.319,0.8223 -0.113,0.1068 -0.229,0.1584 -0.337,0.2037 0.157,0.0465 0.28,0.0792 0.405,0.2954 0.132,0.2188 0.142,0.4778 0.142,0.6048 v 0.3106 c 0,0.1785 0.026,0.3697 0.044,0.4828 0.029,0.1308 0.064,0.1748 0.147,0.2351 v 0.0855 z m -0.727,-3.7419 h -1.368 v 1.5479 h 1.319 c 0.485,0 0.766,-0.3508 0.766,-0.7897 0,-0.3923 -0.214,-0.7582 -0.717,-0.7582 z"/>
  </g>
  <path
    d="m 272.609,18.1135 c 1.873,0 3.391,-1.5183 3.391,-3.3911 0,-1.8729 -1.518,-3.3911 -3.391,-3.3911 -1.873,0 -3.391,1.5182 -3.391,3.3911 0,1.8728 1.518,3.3911 3.391,3.3911 z"
    fill="none"
    stroke="#ffffff"
    stroke-width="0.348"
    stroke-miterlimit="10"/>
</svg>
