<svg width="76" height="50" viewBox="0 0 76 50" fill="none" xmlns="http://www.w3.org/2000/svg">
<g clip-path="url(#clip0_6_528)">
<path d="M16.4428 48.8775V45.6467C16.4808 45.0971 16.2814 44.5576 15.8957 44.1659C15.5099 43.7743 14.9751 43.5683 14.4276 43.6006C13.706 43.5531 13.016 43.9038 12.6267 44.516C12.2717 43.9221 11.6218 43.5708 10.933 43.6006C10.3332 43.5701 9.76215 43.861 9.43222 44.3652V43.7298H8.31738V48.8775H9.44294V46.0452C9.39447 45.6888 9.50687 45.3292 9.74948 45.0647C9.99209 44.8001 10.3396 44.6581 10.6971 44.6775C11.4368 44.6775 11.812 45.1621 11.812 46.0344V48.899H12.9375V46.0452C12.891 45.6892 13.0041 45.3308 13.2463 45.0667C13.4885 44.8026 13.8347 44.6601 14.1917 44.6775C14.9528 44.6775 15.3173 45.1621 15.3173 46.0344V48.899L16.4428 48.8775ZM33.0957 43.7298H31.2627V42.1683H30.1371V43.7298H29.1188V44.7529H30.1586V47.1221C30.1586 48.3175 30.6195 49.0283 31.938 49.0283C32.4306 49.0299 32.9137 48.8918 33.3316 48.6298L33.01 47.6713C32.711 47.8505 32.3717 47.9505 32.0238 47.9621C31.4878 47.9621 31.2841 47.6175 31.2841 47.1006V44.7529H33.1065L33.0957 43.7298ZM42.604 43.6006C42.0503 43.5842 41.5321 43.8735 41.2534 44.3544V43.7298H40.1492V48.8775H41.2641V45.9913C41.2641 45.1406 41.6285 44.6667 42.336 44.6667C42.5745 44.6634 42.8112 44.7074 43.0328 44.796L43.3758 43.719C43.1212 43.6275 42.853 43.5802 42.5826 43.579L42.604 43.6006ZM28.229 44.139C27.598 43.7621 26.8725 43.5752 26.1387 43.6006C24.8417 43.6006 23.9948 44.2252 23.9948 45.2483C23.9948 46.0883 24.6165 46.6052 25.7635 46.7667L26.2995 46.8421C26.9105 46.9283 27.2 47.0898 27.2 47.3806C27.2 47.779 26.7926 48.0052 26.0315 48.0052C25.4193 48.023 24.819 47.8333 24.3271 47.4667L23.7911 48.339C24.4405 48.7946 25.2183 49.0286 26.0101 49.0067C27.4894 49.0067 28.347 48.3067 28.347 47.3267C28.347 46.3467 27.6716 45.9483 26.5568 45.7867L26.0208 45.7113C25.5384 45.6467 25.1525 45.5498 25.1525 45.2052C25.1525 44.8606 25.517 44.6021 26.128 44.6021C26.6928 44.6087 27.2464 44.7607 27.7359 45.0436L28.229 44.139ZM58.0885 43.6006C57.5348 43.5842 57.0165 43.8735 56.7378 44.3544V43.7298H55.6337V48.8775H56.7485V45.9913C56.7485 45.1406 57.113 44.6667 57.8205 44.6667C58.059 44.6634 58.2957 44.7074 58.5173 44.796L58.8603 43.719C58.6057 43.6275 58.3375 43.5802 58.0671 43.579L58.0885 43.6006ZM43.7242 46.2929C43.6974 47.0243 43.9787 47.7333 44.4989 48.2457C45.0192 48.7581 45.7303 49.0266 46.4577 48.9852C47.1271 49.0194 47.7849 48.8004 48.3015 48.3713L47.7655 47.4667C47.3801 47.762 46.9102 47.9244 46.4256 47.9298C45.5711 47.8603 44.9128 47.1434 44.9128 46.2821C44.9128 45.4208 45.5711 44.7039 46.4256 44.6344C46.9102 44.6398 47.3801 44.8023 47.7655 45.0975L48.3015 44.1929C47.7849 43.7638 47.1271 43.5448 46.4577 43.579C45.7303 43.5376 45.0192 43.8061 44.4989 44.3185C43.9787 44.8309 43.6974 45.5399 43.7242 46.2713V46.2929ZM54.1651 46.2929V43.7298H53.0503V44.3544C52.6662 43.8579 52.0678 43.5774 51.4423 43.6006C49.9623 43.6006 48.7624 44.806 48.7624 46.2929C48.7624 47.7798 49.9623 48.9852 51.4423 48.9852C52.0678 49.0084 52.6662 48.7278 53.0503 48.2313V48.856H54.1651V46.2929ZM50.0166 46.2929C50.0662 45.4479 50.779 44.7976 51.621 44.8294C52.463 44.8611 53.1253 45.5632 53.1117 46.4096C53.0981 47.256 52.4136 47.9362 51.571 47.9406C51.1419 47.946 50.7301 47.7712 50.435 47.4583C50.1399 47.1455 49.9882 46.723 50.0166 46.2929ZM36.5635 43.6006C35.0835 43.6214 33.9004 44.8437 33.9212 46.3306C33.9419 47.8175 35.1585 49.006 36.6386 48.9852C37.4097 49.025 38.1681 48.7755 38.7664 48.2852L38.2304 47.456C37.8072 47.797 37.2829 47.9864 36.7404 47.9944C35.9742 48.0606 35.2946 47.5021 35.2075 46.7344H39.013C39.013 46.5944 39.013 46.4544 39.013 46.3036C39.013 44.6883 38.016 43.6113 36.5796 43.6113L36.5635 43.6006ZM36.5635 44.6021C36.9005 44.5949 37.2264 44.7225 37.4697 44.9568C37.7129 45.1911 37.8536 45.5129 37.8606 45.8513H35.1807C35.2211 45.1324 35.8257 44.5775 36.5421 44.6021H36.5635ZM64.4935 46.3036V41.6621H63.4215V44.3544C63.0374 43.8579 62.439 43.5774 61.8136 43.6006C60.3335 43.6006 59.1337 44.806 59.1337 46.2929C59.1337 47.7798 60.3335 48.9852 61.8136 48.9852C62.439 49.0084 63.0374 48.7278 63.4215 48.2313V48.856H64.4935V46.3036ZM66.3533 48.129C66.423 48.1282 66.4922 48.141 66.557 48.1667C66.6185 48.192 66.6749 48.2285 66.7231 48.2744C66.7702 48.3208 66.8084 48.3756 66.8357 48.436C66.8906 48.5631 66.8906 48.7073 66.8357 48.8344C66.8084 48.8948 66.7702 48.9495 66.7231 48.996C66.6749 49.0419 66.6185 49.0784 66.557 49.1036C66.4928 49.1321 66.4234 49.1468 66.3533 49.1467C66.1459 49.1452 65.958 49.0235 65.8709 48.8344C65.8167 48.7072 65.8167 48.5632 65.8709 48.436C65.8982 48.3756 65.9364 48.3208 65.9835 48.2744C66.0317 48.2285 66.0881 48.192 66.1496 48.1667C66.2194 48.1388 66.2943 48.126 66.3694 48.129H66.3533ZM66.3533 49.039C66.4068 49.0394 66.4598 49.0284 66.5087 49.0067C66.5549 48.986 66.5967 48.9568 66.632 48.9206C66.771 48.7682 66.771 48.5344 66.632 48.3821C66.5968 48.3458 66.5549 48.3165 66.5087 48.296C66.4597 48.2745 66.4068 48.2635 66.3533 48.2636C66.2999 48.2639 66.247 48.2749 66.1979 48.296C66.1497 48.3158 66.106 48.3451 66.0692 48.3821C65.9303 48.5344 65.9303 48.7682 66.0692 48.9206C66.1061 48.9575 66.1498 48.9868 66.1979 49.0067C66.252 49.0302 66.3105 49.0412 66.3694 49.039H66.3533ZM66.3855 48.3983C66.4355 48.3958 66.4848 48.4111 66.5248 48.4413C66.5581 48.469 66.5761 48.5111 66.5731 48.5544C66.5746 48.5906 66.561 48.6257 66.5355 48.6513C66.5045 48.6797 66.4648 48.6968 66.423 48.6998L66.5784 48.8775H66.4551L66.3104 48.6998H66.2622V48.8775H66.1604V48.4037L66.3855 48.3983ZM66.2676 48.4898V48.619H66.3855C66.4065 48.6253 66.4288 48.6253 66.4498 48.619C66.4574 48.6038 66.4574 48.5858 66.4498 48.5706C66.4574 48.5553 66.4574 48.5374 66.4498 48.5221C66.4288 48.5158 66.4065 48.5158 66.3855 48.5221L66.2676 48.4898ZM60.3718 46.3036C60.4213 45.4586 61.1342 44.8084 61.9762 44.8401C62.8182 44.8719 63.4805 45.574 63.4669 46.4204C63.4532 47.2667 62.7687 47.9469 61.9261 47.9513C61.4971 47.9568 61.0853 47.782 60.7901 47.4691C60.495 47.1562 60.3433 46.7338 60.3718 46.3036ZM22.7299 46.3036V43.7298H21.6151V44.3544C21.231 43.8579 20.6326 43.5774 20.0071 43.6006C18.527 43.6006 17.3272 44.806 17.3272 46.2929C17.3272 47.7798 18.527 48.9852 20.0071 48.9852C20.6326 49.0084 21.231 48.7278 21.6151 48.2313V48.856H22.7299V46.3036ZM18.5814 46.3036C18.631 45.4586 19.3438 44.8084 20.1858 44.8401C21.0278 44.8719 21.6901 45.574 21.6765 46.4204C21.6629 47.2667 20.9783 47.9469 20.1357 47.9513C19.7049 47.9598 19.2902 47.7864 18.9927 47.4731C18.6952 47.1599 18.5421 46.7357 18.5707 46.3036H18.5814Z" fill="white"/>
<path d="M65.6779 32.0141V31.1742H65.9298V31.0005H65.292V31.1742H65.5653V32.0141H65.6779ZM66.916 32.0141V31.0005H66.7231L66.4979 31.7245L66.2728 31.0005H66.1013V32.0141H66.2407V31.2539L66.4497 31.9127H66.5944L66.8035 31.2539V32.0213L66.916 32.0141Z" fill="white"/>
<path d="M34.7754 35.4476C34.9276 35.5757 35.0904 35.7039 35.2505 35.8295C32.1609 37.8775 28.4517 39.0675 24.4696 39.0675C13.715 39.0702 5 30.3864 5 19.673C5 8.96222 13.715 0.275879 24.467 0.275879C28.4518 0.275879 32.1609 1.46858 35.2426 3.51397C35.0851 3.64736 34.9276 3.77029 34.8095 3.9063C30.2 7.87414 27.5619 13.6258 27.5619 19.673C27.5619 25.7176 30.1895 31.4693 34.7754 35.4476ZM48.533 0.275879C44.543 0.275879 40.8391 1.46858 37.7574 3.51397C37.9149 3.64736 38.0724 3.77029 38.1905 3.9063C42.8 7.87414 45.4381 13.6258 45.4381 19.673C45.4381 25.715 42.8105 31.4614 38.2246 35.4476C38.0724 35.5757 37.9096 35.7039 37.7495 35.8295C40.8391 37.8775 44.543 39.0675 48.5304 39.0675C59.285 39.0702 68 30.3864 68 19.673C68 8.96484 59.285 0.275879 48.533 0.275879ZM36.5 4.43465C36.248 4.63082 36.0039 4.82699 35.765 5.03885C31.6595 8.59342 29.0686 13.8272 29.0686 19.673C29.0686 25.5215 31.6595 30.7526 35.765 34.3072C36.0012 34.5164 36.2506 34.7204 36.5 34.914C36.752 34.7204 36.9961 34.5164 37.235 34.3072C41.3379 30.7526 43.9314 25.5215 43.9314 19.673C43.9314 13.8272 41.3405 8.59342 37.235 5.03885C36.9988 4.8296 36.752 4.63082 36.5 4.43465Z" fill="white"/>
</g>
<defs>
<clipPath id="clip0_6_528">
<rect width="76" height="49" fill="white" transform="translate(0 0.275879)"/>
</clipPath>
</defs>
</svg>
