<svg width="904" height="319" viewBox="0 0 904 319" fill="#E31019" xmlns="http://www.w3.org/2000/svg">
<path d="M869.719 128.028C869.714 128.94 869.708 129.855 869.701 130.999C868.782 131.097 867.849 131.197 866.47 131.342C866.549 133.07 866.623 134.651 866.708 136.448C865.372 136.513 863.619 136.597 862.111 136.669C862.052 135.432 862.06 134.065 861.965 134.066C859.86 134.094 858.092 131.903 855.716 133.781C854.168 134.997 852.409 135.973 850.642 136.789C849.008 137.53 848.206 137.06 848.65 135.057C848.825 134.27 848.382 132.749 847.88 132.616C846.3 132.194 844.944 129.685 842.898 132.045C842.438 132.572 841.738 132.898 840.625 133.668C842.372 134.102 843.864 134.474 845.688 134.928C844.976 135.642 844.533 136.593 843.915 137.371C843.289 138.136 842.474 138.706 841.058 138.688C840.44 138.679 839.755 139.754 839.713 139.791C841.758 142.229 843.554 144.371 845.52 146.716C843.695 147.875 840.713 147.026 841.665 150.081C841.686 150.149 840.872 150.734 840.645 150.648C838.013 149.637 837.356 151.62 836.336 153.441C838.306 154.162 840.258 154.876 841.554 155.35C842.788 153.766 843.755 152.38 844.739 151.052L845.678 151.52C844.92 154.413 844.143 157.357 843.29 160.203L843.975 160.504C845.961 158.995 847.88 157.325 850.218 155.405C850.121 154.963 849.893 153.93 849.653 152.84C850.088 152.523 850.53 152.233 850.933 151.898C851.976 151.025 853.036 149.461 854.01 149.378C855.786 149.259 857.625 149.887 859.297 150.509C861.114 151.183 861.029 153.522 859.093 155.027C857.674 156.151 856.55 156.842 857.511 158.761C858.116 159.965 855.326 161.507 853.434 160.887C853.814 160.072 854.193 159.26 854.813 157.928C852.774 158.509 851.099 158.923 849.486 159.527C849.344 159.58 849.645 160.881 849.61 161.613C849.549 162.844 849.755 164.289 849.139 165.278C848.65 166.067 847.13 166.676 846.07 166.782C844.489 166.942 843.006 166.308 842.59 168.836C842.416 169.864 840.962 170.853 839.614 172.35C844.241 171.836 848.34 171.304 852.615 170.747C853.272 168.328 853.741 165.888 854.527 163.572C854.72 162.996 855.985 162.267 856.702 162.24C858.261 162.184 859.782 162.584 861.35 162.688C864.097 162.873 865.356 161.556 865.246 158.325C867.443 159.293 869.619 159.867 871.286 161.051C872.572 161.959 871.803 163.997 870.215 164.243C866.728 164.789 864.45 165.824 863.417 169.518C863.138 170.53 860.889 171.316 859.667 172.12C858.952 172.227 857.853 172.069 857.427 172.504C855.766 174.239 854.24 175.727 851.606 175.918C850.593 175.984 849.189 177.307 848.53 178.339C848.096 179.019 848.479 180.315 848.902 181.097C849.046 181.362 850.447 180.896 851.276 180.754C852.38 180.561 853.488 180.366 854.593 180.172L854.883 181.273C852.991 182.022 851.08 182.704 849.225 183.527C848.028 184.077 846.3 184.563 845.873 185.427C845.315 186.553 845.149 188.457 847.377 188.501C849.065 188.53 851.066 188.874 852.444 188.069C853.875 187.256 854.725 185.323 856.017 183.62C856.962 184.069 857.902 184.515 858.842 184.96C857.989 185.694 857.023 186.349 856.306 187.181C855.183 188.486 854.221 189.914 853.584 190.758C853.756 192.106 853.887 193.118 854.016 194.131L852.995 193.663C851.492 194.485 850.012 195.35 848.485 196.112C846.537 197.084 844.571 198.008 842.617 198.948C840.655 199.843 838.698 200.734 836.784 201.712C834.905 202.671 833.279 204.178 831.558 205.467C831.214 205.732 831.019 206.34 830.694 206.423C827.214 207.297 824.379 209.47 821.259 211.064C821.07 211.161 820.813 211.277 820.648 211.236C819.575 210.977 818.539 210.391 817.456 210.434C816.552 210.477 815.469 211.126 814.7 211.76C813.782 212.514 813.112 213.535 811.74 215.128C810.62 213.259 810.086 211.194 808.646 210.289C807.138 209.343 804.773 209.506 803.647 209.317C801.892 210.834 800.76 212.227 799.289 212.961C796.609 214.282 793.908 215.582 791.183 216.793L782.983 220.318C782.681 220.448 782.337 220.515 782.077 220.694C779.76 222.335 777.837 224.622 774.563 222.027C773.427 221.12 771.54 223.954 771.079 225.481C770.338 227.927 768.198 228.561 766.308 229.386C765.715 229.653 764.649 228.912 763.584 228.557C763.789 230.006 763.987 231.395 764.173 232.696C761.68 234.688 758.656 235.72 756.896 238.476C756.555 239.005 753.611 238.196 751.537 237.96C751.309 238.61 750.863 239.881 750.115 242.01C749.173 240.534 748.5 239.69 748.06 238.743C746.914 236.276 745.081 235.843 742.321 237.081C740.216 238.023 737.929 238.813 735.688 239.063C732.24 239.431 732.901 241.286 733.393 243.103C727.862 245.761 726.711 245.546 723.624 241.513C723.168 242.539 722.823 243.314 722.536 243.961C723.387 244.634 724.085 245.188 724.641 245.628C723.237 246.316 722.223 246.969 721.114 247.293C720.446 247.489 719.636 247.171 719.083 246.412C717.534 247.383 715.724 249.363 714.471 249.133C711.463 248.575 710.651 251.173 708.632 251.782C707.261 252.195 705.806 252.321 704.428 252.712C703.966 252.842 703.62 253.395 703.222 253.756C703.682 254.033 704.17 254.597 704.602 254.54C707.857 254.102 711.106 253.537 714.365 253.015C714.575 252.981 714.872 253.096 714.997 252.998C717.364 251.129 719.93 251.241 722.727 251.431C723.871 251.503 725.209 250.225 726.897 249.327C727.201 249.612 727.931 250.292 728.803 251.105C727.099 252.835 725.525 253.92 722.806 253.855C720.813 253.8 718.695 255.066 716.324 255.798C717.733 258.421 718.819 259.026 720.616 256.907C721.174 256.248 722.077 255.766 722.906 255.368C723.778 254.948 724.79 254.804 725.674 254.401C727.491 253.572 729.307 252.604 730.991 252.333C732.672 252.039 734.222 252.427 735.527 254.372C739.139 251.332 742.416 248.61 745.669 245.782C748.342 248.5 748.368 248.496 754.576 244.196C751.974 244.106 750.261 244.046 748.745 243.994C750.474 242.113 752.766 241.96 755.238 243.9C755.793 242.946 756.327 242.028 756.862 241.108L757.609 241.265C757.635 242.025 757.662 242.783 757.697 243.749C758.438 243.704 759.155 243.684 759.864 243.574C762.687 243.149 764.98 242.167 766.548 239.54C767.114 238.591 769.336 237.803 770.65 237.881C772.788 238.005 774.771 238.945 776.897 239.352C778.95 239.738 781.088 239.88 783.541 240.161C783.481 238.85 783.449 238.116 783.414 237.35C785.562 236.795 787.672 236.187 789.762 235.565C791.858 234.95 793.937 234.337 796.015 233.727L797.413 233.855L794.851 236.453L795.799 236.952C796.681 235.925 797.442 234.781 798.473 233.911C799.237 233.274 800.357 232.978 801.314 232.498L801.721 233.195C802.36 231.769 802.631 229.91 803.751 229.083C804.448 228.568 806.443 229.602 808.13 229.997C809.144 228.186 810.419 226.614 811.962 225.492C813.5 224.344 815.31 223.674 817.415 223.739C818.545 224.533 819.51 225.512 819.793 225.349C821.134 224.575 822.838 223.649 823.394 222.484C824.73 219.706 825.533 219.243 827.552 220.718C830.533 219.045 833.337 217.518 836.08 215.897C838.13 214.67 840.02 213.113 842.11 211.957C843.842 210.991 846.152 210.745 847.541 209.528C850.283 207.088 852.989 204.897 856.602 204.038C858.366 199.718 863.095 198.51 866.465 195.854C867.067 195.377 868.347 194.729 868.567 194.908C870.891 196.834 873.018 194.558 875.229 193.546C875.945 193.221 876.762 193.208 877.654 193.48C876.097 193.537 875.342 194.905 874.482 196.142C873.626 197.388 872.665 198.48 870.747 197.914C869.896 199.464 866.977 201.844 863.888 203.876C860.802 205.935 857.525 207.428 856.015 207.607C853.092 209.953 850.944 211.766 848.764 213.396C847.045 214.713 845.085 215.845 843.63 217.364C839.468 221.781 833.889 223.27 828.716 225.514C825.813 226.75 823.695 228.348 822.689 231.043C822.463 231.644 822.971 232.38 823.149 233.101C822.29 233.504 820.981 234.115 820.462 234.358C820.354 233.318 820.241 232.199 820.127 231.079L819.229 231.149C818.848 231.842 818.467 232.536 818.049 233.297C816.356 233.075 814.777 232.851 813.197 232.588L813.454 233.237L809.297 235.299C807.087 236.407 804.475 237.165 802.796 238.738C801.361 240.045 800.265 240.135 798.692 240.225C797.263 240.305 795.776 240.678 794.377 241.137C792.121 241.86 789.849 242.661 787.715 243.632C785.116 244.835 782.71 246.082 780.547 248.317C779.464 249.429 778.012 250.284 776.451 251.016C774.888 251.736 773.222 252.373 771.713 253.135C768.405 254.781 765.098 256.511 761.765 258.078C761.277 258.312 760.546 258.899 760.365 258.788C757.372 256.933 754.616 260.335 751.635 259.461C751.626 260.383 751.62 261.001 751.615 261.617L750.972 261.023C749.601 261.822 748.283 262.735 746.818 263.253C745.436 263.731 743.812 263.523 742.444 264.017C740.601 264.684 738.875 265.701 737.134 266.633C735.798 267.358 734.575 268.509 733.186 268.794C729.941 269.439 726.635 269.643 723.368 270.075C722.73 270.157 721.944 270.364 721.507 270.753C717.753 274.087 713.353 275.572 708.254 275.449C706.659 275.412 704.731 275.83 703.349 276.627C698.139 279.596 692.125 279.205 686.625 280.844C684.818 281.399 682.591 280.644 679.982 280.436C681.157 281.44 681.77 281.963 682.958 282.979C680.919 283.329 679.694 283.682 678.48 283.721C672.63 283.81 667.124 285.288 661.659 287.204C661.141 287.378 660.356 287.329 659.899 287.089C658.485 286.346 657.551 286.447 656.203 287.612C655.325 288.372 653.572 288.359 652.198 288.614L647.103 289.551L641.999 290.377L631.79 291.999C628.257 292.501 624.518 292.406 621.229 293.51C619.233 294.174 617.203 294.67 615.157 295.041C613.107 295.387 611.042 295.633 608.978 295.867C604.844 296.31 600.72 296.806 596.675 297.743C592.71 298.693 588.659 299.372 584.621 300.066C583.451 300.277 582.208 300.001 581.009 300.088C574.239 300.541 567.481 301.197 560.708 301.434C555.626 301.639 550.54 301.683 545.466 301.83C540.845 301.989 536.237 302.629 531.611 302.727C527.333 302.795 523.049 302.364 518.782 302.476L508.302 302.752C504.808 302.847 501.311 303.001 497.815 302.997C492.849 302.972 487.886 302.684 482.923 302.67C479.117 302.623 475.301 302.941 471.5 302.77C468.068 302.596 464.675 301.856 461.254 301.56C458.299 301.332 455.308 301.623 452.331 301.544C449.559 301.468 446.772 301.358 444.029 300.955C440.947 300.531 437.873 300.078 434.804 299.609C431.734 299.145 428.668 298.665 425.616 298.088C423.857 297.769 422.325 297.624 420.392 297.891C417.068 298.336 413.442 297.336 409.955 296.873C408.47 296.673 406.97 296.587 405.493 296.349L397.424 295.019L393.395 294.333L389.38 293.566C389.167 293.525 388.952 293.366 388.758 293.386C384.923 293.787 381.239 293.154 377.602 292.291C373.964 291.433 370.397 290.205 366.716 289.62C363.326 289.053 359.931 288.512 356.55 287.887L346.414 285.984C339.456 284.791 332.485 283.606 325.614 281.981C324.17 281.636 322.739 281.249 321.313 280.838C319.895 280.396 318.485 279.928 317.076 279.457C314.256 278.512 311.445 277.547 308.6 276.706C302.748 275.043 296.916 273.277 291.036 271.701C289.771 271.356 288.317 271.693 286.839 271.715C285.539 269.569 268.981 263.859 266.515 264.267C263.037 262.856 260.751 261.834 258.399 260.991C255.107 259.808 251.661 258.982 248.472 257.589C244.754 255.879 241.407 253.638 237.083 253.18C235.057 252.964 233.149 251.12 231.13 250.135C228.449 248.77 225.719 247.495 223.013 246.185L222.36 247.022C221.942 246.033 221.522 245.043 220.986 243.776C220.635 244.466 220.378 244.968 220.123 245.468C219.397 241.571 215.795 240.695 213.004 238.887C210.309 237.111 208.1 236.204 206.455 240.471C206.125 238.733 205.966 237.901 205.669 236.332C204.899 237.473 204.487 238.084 203.899 238.953C203.394 237.958 202.972 237.127 202.689 236.568C199.323 236.443 196.041 236.274 193.339 235.116C190.652 233.932 188.52 231.823 187.427 227.954C186.757 228.64 186.354 229.054 185.874 229.544C185.489 229.165 185.195 228.982 185.067 228.734C183.074 224.86 181.318 224.53 177.154 225.285C174.916 225.667 171.979 224.475 169.667 223.342C165.959 221.519 162.397 219.311 159.02 216.956C157.297 215.723 156.108 213.792 154.692 212.177C151.739 208.791 148.296 206.515 143.619 206.074C141.275 205.875 138.911 205.218 136.721 204.317C135.531 203.822 134.686 202.412 133.239 200.964C133.113 201.008 132.651 201.165 131.709 201.489C131.412 200.46 131.152 199.564 130.873 198.606C130.299 198.875 129.78 199.119 129.157 199.413C128.935 198.28 128.741 197.283 128.545 196.283C127.334 199.874 125.524 198.053 123.704 196.661C122.527 195.757 121.269 194.941 119.748 193.88C120.603 193.762 121.283 193.669 121.963 193.576C120.625 190.71 110.306 183.748 107.007 183.626C105.539 180.23 102.331 179.271 99.054 178.298C98.3442 178.087 97.6691 177.081 97.0886 177.119C95.4945 177.223 94.8088 173.57 92.7583 175.884C92.65 176.006 91.6679 175.504 91.1663 175.18C90.1094 174.491 89.0684 173.77 88.0809 172.985C87.6183 172.612 86.8391 171.988 86.9095 171.696C87.7392 168.257 84.7044 167.152 82.6707 165.527C81.1038 164.276 79.3414 163.259 77.4171 161.969C78.1732 161.074 78.7094 160.44 79.3057 159.733C81.9566 161.018 84.5047 162.141 86.9464 163.468C88.4112 164.263 89.5784 165.213 90.937 163.524C91.2451 163.142 92.9633 163.436 93.7205 163.919L108.093 172.699L111.685 174.894L115.333 177.004L122.649 181.181L129.731 185.136L136.935 188.88L144.132 192.626L147.724 194.509L151.349 196.332C156.705 199.019 161.745 202.341 167.152 204.94C172.37 207.412 177.826 209.354 183.068 211.749C187.303 213.574 191.505 215.541 195.516 217.81C198.14 219.274 200.364 220.125 203.542 219.876C205.712 219.722 208.95 221.675 210.457 223.551C212.619 226.241 215.476 226.807 218.158 227.363C224.804 228.622 230.839 231.069 236.807 234.147C240.664 236.025 244.814 237.365 248.885 238.792L254.556 240.751L260.283 242.552L271.729 246.15C275.029 247.171 278.276 248.38 281.595 249.336C282.744 249.663 284.035 249.469 285.431 249.518C285.033 248.78 284.807 248.359 284.473 247.738C285.772 247.654 286.946 247.578 288.131 247.502C287.487 250.691 288.062 251.253 291.737 251.22C293.621 251.184 295.524 251.43 297.412 251.575C299.421 251.744 301.437 251.913 303.788 252.111C303.955 252.739 304.222 253.738 304.544 254.937C306.714 254.063 308.717 253.212 310.81 252.445C311.619 252.152 312.662 252.003 313.493 252.207L322.11 254.392C324.98 255.133 327.841 255.904 330.733 256.556C335.015 257.567 339.297 258.577 343.801 259.64C343.123 260.664 342.531 261.56 341.938 262.457C343.945 261.57 345.477 260.988 347.654 262.435C348.321 262.882 350.364 261.527 351.349 261.153C356.714 262.665 361.979 264.944 367.417 265.326C370.244 265.554 372.927 265.96 375.695 266.326C377.243 266.528 379.034 264.59 380.949 263.449C380.956 264.37 380.964 265.473 380.972 266.606C385.204 268.274 390.355 269.183 394.536 269.28C398.715 269.411 401.948 268.542 402.36 267.005C400.191 266.276 398.049 265.59 395.691 264.722C395.866 263.674 394.844 261.397 398.307 263.045C399.162 263.434 401.181 261.578 402.622 260.707C403.517 260.167 404.35 259.542 405.206 258.954L406.282 262.076L405.521 262.384C409.682 265.896 414.132 269.021 420.222 267.757C421.288 262.958 424.606 260.505 429.733 259.974L429.871 259.168C427.803 258.55 425.779 257.702 423.671 257.362C421.666 257.038 419.65 256.777 417.63 256.543L411.576 255.77L401.776 254.534C398.505 254.142 395.26 253.581 392.01 253.052C390.322 252.767 388.332 252.261 387.238 251.177C386.427 250.375 386.63 248.436 386.86 247.081C386.918 246.752 389.016 246.31 389.884 246.636C393.57 248.026 396.524 246.746 396.281 243.3C394.999 243.876 393.829 244.401 392.823 244.853C392.652 243.652 392.504 242.618 392.358 241.584C391.286 241.785 390.192 241.918 389.143 242.203C387.716 242.591 386.321 243.096 384.835 243.573C384.685 243.022 384.536 242.475 384.384 241.918C384.194 241.936 383.982 241.894 383.85 241.973C382.083 243.022 380.69 245.318 377.981 243.12C377.568 242.783 375.937 243.895 374.831 244.247C374.169 244.458 373.444 244.495 373.143 244.546C373.458 242.872 373.697 241.602 373.938 240.33C372.71 240.17 371.481 240.01 369.503 239.754C367.786 239.682 365.446 239.496 363.004 239.307C362.601 237.309 356.851 234.149 354.458 235.103C353.995 235.287 353.882 236.265 353.608 236.878C354.371 237.103 355.143 237.526 355.897 237.507C357.102 237.477 358.295 237.154 359.861 236.892C359.387 238.694 359.098 239.791 358.776 241.014C360.25 241.683 361.675 242.263 363.014 242.996C363.262 243.132 363.153 243.886 363.244 244.643C366.304 241.403 368.757 245.49 371.769 244.702C369.795 248.701 369.152 248.985 365.48 247.972C362.688 247.141 359.153 247.811 357.651 244.256C357.58 244.085 355.515 244.528 354.436 244.857C351.997 245.604 350.335 244.744 349.943 242.408C349.436 239.456 346.516 236.998 343.366 237.013C342.182 237.014 340.999 237.065 339.699 237.522C341.741 238.004 343.785 238.487 346.402 239.104C345.855 239.898 345.479 240.944 345.064 240.948C343.477 240.963 341.657 241.039 340.326 240.354C338.012 239.163 335.887 238.558 334.314 239.258C332.183 238.398 330.707 237.417 329.112 237.097C324.143 236.113 318.939 235.892 314.172 234.319C311.758 233.471 308.862 233.26 306.663 231.09C305.576 230.015 302.814 230.493 300.805 230.25C299.134 230.042 296.968 230.393 295.877 229.473C291.853 226.158 287.081 225.571 282.308 224.571C280.683 224.244 279.207 223.25 277.663 222.554C277.12 222.313 276.539 222.159 275.974 221.964C272.987 220.937 269.999 219.911 266.691 218.774C267.599 217.567 268.221 216.74 268.84 215.917C267.57 214.545 265.914 213.677 264.282 213.363C262.659 213.023 261.052 213.259 259.866 214.165C259.422 213.418 258.982 212.681 258.526 211.914C256.898 212.612 255.401 213.353 253.809 213.839C253.47 213.944 252.797 213.126 252.118 212.613C253.666 212.178 254.882 211.837 256.839 211.288C254.998 210.604 253.987 210.227 252.833 209.798C252.287 210.69 251.748 211.571 251.22 212.434C248.927 211.768 246.685 211.314 244.583 210.483C241.208 209.17 237.715 207.969 234.658 206.114C233.411 205.357 232.623 204.203 230.881 204.135C230.527 204.117 230.193 202.141 229.761 200.738C228.489 204.937 225.683 202.546 224.457 201.262C222.453 199.164 218.623 199.968 217.633 196.709C217.596 196.584 217.134 196.469 216.897 196.502C215.112 196.738 213.459 196.614 211.9 196.251C210.351 195.864 208.904 195.218 207.504 194.458C204.703 192.937 202.109 190.928 199.339 189.359C198.724 189.009 198.119 188.634 197.474 188.352C194.525 187.104 191.72 185.501 188.712 184.467C185.792 183.443 185.242 181.716 186.176 179.29C185.79 179.099 185.628 178.965 185.456 178.942C183.579 178.683 183.571 182.89 180.715 180.583C179.312 179.453 177.603 178.673 176.031 177.733C172.105 175.44 168.176 173.154 164.224 170.92C162.429 169.916 160.545 169.064 158.775 168.011C155.557 166.135 152.334 164.262 149.19 162.269C147.996 161.512 147.037 160.403 145.916 159.526C145.606 159.284 145.084 159.298 144.66 159.193C144.001 159.015 143.274 158.957 142.697 158.629C138.631 156.307 134.417 154.171 130.6 151.49C129.667 150.834 128.761 150.144 127.872 149.43C126.992 148.704 126.14 147.937 125.291 147.172C123.593 145.634 121.929 144.059 120.219 142.551C120.014 142.368 119.689 142.095 119.505 142.144C116.618 142.894 116.429 140.729 115.998 139.142C114.42 138.752 112.913 138.365 111.55 137.724C110.208 137.051 109.01 136.124 108.04 134.687C106.987 133.128 105.471 131.759 103.9 130.697C103.259 130.264 101.916 130.862 100.828 130.997C98.4652 128.504 96.4304 125.811 93.0265 123.963C89.8718 122.292 87.5205 119.055 84.7359 116.987C82.7537 116.055 80.5444 115.413 78.8272 114.125C74.8292 110.98 71.0026 107.606 67.2821 104.156C66.4608 103.394 66.3231 101.92 65.7941 100.57C64.8393 100.325 63.4986 99.9673 61.7005 99.4361C62.2714 98.7818 62.6184 98.0065 62.9991 98.0055C67.1202 98.0002 72.5263 102.53 74.3823 107.889C75.1668 107.753 75.9859 107.529 76.8198 107.486C77.4613 107.455 78.5601 107.461 78.7063 107.773C80.4782 111.653 85.021 111.841 87.6909 114.578C89.7424 116.672 92.3335 118.26 94.6942 120.06C97.8226 122.504 101.133 124.704 104.28 127.123C107.194 129.345 109.822 131.992 112.879 133.993C116.953 136.57 121.39 138.56 125.584 140.935C127.601 142.061 129.407 143.56 131.374 144.79C134.032 146.427 136.783 149.299 139.398 149.284C142.487 149.264 144.789 151.564 147.951 150.751C149.299 148.313 146.078 147.785 145.144 146.831C142.33 143.954 138.835 141.744 135.653 139.229C132.923 137.06 130.339 134.697 127.653 132.484C127.271 132.164 126.676 132.053 126.161 131.942C125.594 131.822 124.537 131.913 124.494 131.741C123.794 128.858 120.947 129.02 119.183 128.737C116.712 128.359 116.364 126.434 116.292 125.281C116.223 124.043 115.955 121.802 118.31 121.339C118.853 121.232 119.222 120.393 119.693 119.912C121.17 118.402 122.275 118.355 123.598 120.389C124.566 121.849 126.17 122.908 127.401 124.062C128.493 123.31 129.376 122.702 130.258 122.095L131.059 122.421C129.238 125.059 129.547 126.561 132.735 127.188C134.113 127.458 135.311 128.714 136.749 129.622C137.448 128.292 137.961 127.318 138.635 126.036C139.593 126.954 140.304 127.681 141.268 128.563C140.342 128.822 139.635 129.019 138.855 129.237C140.358 130.642 141.737 132.011 143.296 133.145C143.978 133.636 145.222 133.951 145.952 133.681C150.451 132.02 155.291 134.424 157.179 139.741C156.267 139.481 155.676 139.222 155.068 139.117C154.146 138.966 153.207 138.93 152.276 138.844C152.624 139.832 152.748 140.997 153.365 141.781C155.55 144.516 158.169 143.845 160.844 142.541C161.595 142.172 162.645 142.392 163.556 142.34L162.199 144.603C161.976 144.954 161.749 145.314 161.263 146.08C162.583 146.11 163.452 146.13 163.897 146.141C164.477 145.103 164.898 144.348 165.32 143.594C165.495 144.18 165.668 144.767 165.818 145.268C166.597 144.781 167.555 144.182 168.677 143.481C169.222 144.604 169.595 145.378 169.949 146.107C170.925 146.595 172.486 145.943 173.731 145.881C174.984 145.802 175.928 146.3 175.679 149.14C176.357 148.274 177.04 147.4 177.576 146.715C178.735 148.655 179.429 150.658 180.822 151.884C182.192 153.088 184.265 153.497 186.027 154.253L185.969 155.048C184.726 155.477 183.484 155.907 181.848 156.472C181.956 155.494 182.028 154.837 182.133 153.88C177.474 156.063 175.788 150.589 171.782 150.108C171.557 151.883 171.751 153.303 173.587 154.11C177.125 155.665 180.612 157.374 184.242 158.634C185.479 159.063 187.253 158.666 188.482 158.063C189.788 157.41 190.639 155.949 192.12 157.86C192.479 158.321 193.575 158.427 194.303 158.374C196.318 158.229 196.337 159.285 196.147 160.436C194.238 160.792 192.563 161.104 190.483 161.49C192.24 164.644 194.58 165.016 196.97 164.745C197.025 163.393 196.641 161.844 197.252 161.063C197.862 160.282 199.465 160.267 200.848 159.845C200.876 159.523 200.93 158.892 201.053 157.467C203.272 158.563 205.434 159.171 206.954 160.513C208.449 161.818 209.5 162.84 211.196 160.803C211.488 163.754 209.575 164.921 206.707 164.1C205.055 163.612 203.315 163.438 201.608 163.125L201.305 164.418C202.276 164.685 203.247 164.952 204.838 165.389C203.781 166.324 202.844 167.153 201.904 167.984C200.961 166.632 200.266 165.637 199.572 164.641L198.592 164.766C198.599 165.581 198.257 166.749 198.674 167.156C200.053 168.504 201.563 169.119 203.128 169.014C204.698 168.901 206.34 168.029 207.955 166.479C208.47 166.851 209.315 167.14 209.498 167.651C210.189 169.592 211.621 169.57 213.285 169.498C214.571 169.443 216.473 168.709 216.351 171.262C217.494 171.234 218.705 171.409 219.741 171.073C220.166 170.934 220.213 169.694 220.55 168.563C222.085 169.397 223.44 170.151 224.826 170.842L224.678 171.717C223.407 171.813 222.135 171.902 220.559 171.969C220.879 172.636 221.25 173.413 221.614 174.172C220.118 174.66 218.626 175.146 217.135 175.63L217.174 176.399C218.499 176.795 219.804 177.23 221.251 177.616C222.171 174.851 223.822 173.08 227.098 172.592C225.532 175.62 224.931 178.47 227.55 180.88C228.797 182.029 230.342 182.996 231.916 183.646C233.268 184.203 234.652 184.683 236.08 185.153C237.523 185.586 239.001 186.03 240.556 186.496C239.415 182.211 242.626 183.573 244.876 183.68C243.68 181.188 243.069 179.393 239.915 179.48C236.446 179.547 233.536 177.083 231.511 174.506C228.104 170.151 223.458 167.985 218.742 165.705C220.549 162.049 219.767 160.505 215.713 159.081C214.747 158.742 213.956 157.936 213.053 157.399C210.541 155.942 208.683 153.394 205.252 153.462C204.286 153.483 203.305 151.856 202.29 151.042C201.482 150.397 200.658 149.748 199.755 149.262L191.217 144.741C188.254 143.205 185.176 141.881 182.245 140.284C180.962 139.585 179.992 138.351 178.769 137.528C177.629 136.736 176.352 136.142 175.092 135.564C171.389 133.318 167.704 131.044 163.982 128.837C159.767 126.285 155.669 123.532 151.368 121.14C149.374 120 147.426 118.734 145.411 117.461C143.387 116.203 141.225 115.051 138.686 114.298C137.789 111.171 133.907 110.399 131.323 108.144C128.901 105.95 126.233 104.345 123.348 102.874C122.514 102.447 122.224 100.814 120.855 99.9536C115.905 96.9199 111.439 93.1615 106.726 89.7755C104.5 88.1714 102.013 86.9281 99.7271 85.3944C96.0287 82.7784 92.3587 80.1139 88.7476 77.3769C83.6865 73.6375 78.8031 69.6519 74.0563 65.5348C72.458 64.1379 70.9616 62.6295 69.481 61.1043C68.0214 59.5527 66.607 57.9549 65.1138 56.4433C64.1285 55.4419 62.7562 54.8224 61.7804 53.8147C60.3965 52.3862 59.3397 50.6401 57.9275 49.2537C57.0357 48.3775 56.0052 47.6233 55.0104 46.8438C54.0293 46.0475 53.0976 45.2134 52.372 44.2236C49.6695 40.5115 45.499 38.7422 42.2876 35.7632C39.8837 33.5827 38.0424 30.8183 35.8068 28.4599C32.9812 25.4747 29.9917 22.6504 27.0536 19.7787C25.8842 18.6585 24.697 17.553 23.7317 16.1876C26.3889 17.4215 28.4815 19.5484 30.7046 21.5343C32.9317 23.513 35.3241 25.3138 38.6649 25.7198C38.7322 26.1006 38.8615 26.8359 39.0781 28.0645C39.9446 27.1136 40.6093 26.3835 41.7355 25.1476C42.1508 26.9116 42.4915 28.3632 42.8564 29.9137C43.1519 29.657 43.6599 29.2205 44.2981 28.6703C46.4139 31.0687 50.2299 32.0301 49.7989 36.1893C54.4625 37.6556 54.6655 37.9659 52.7611 40.5073C54.4331 42.5932 55.9926 44.0247 57.5626 44.7022C59.1367 45.3764 60.6699 45.3565 62.2273 44.6275C62.3861 45.3575 62.8782 46.2663 62.6153 46.6155C60.4343 49.5124 62.856 50.6274 64.5207 52.1032C65.5901 53.0478 66.503 54.1765 67.5882 55.1011C68.6902 56.0405 69.9173 56.8315 71.2129 57.4363C72.7019 59.1583 74.1131 60.9612 75.7577 62.5285C78.7 65.3149 81.6465 68.1508 84.8706 70.5986C88.6793 73.4229 91.5921 77.6778 96.8878 78.3762C97.9447 78.5108 98.7018 80.3191 99.7597 81.1459C100.443 81.6792 101.135 82.204 101.832 82.7194L103.969 84.2058C105.395 85.1935 106.822 86.1812 108.215 87.2142C110.78 89.1181 113.169 91.2702 115.791 93.0931C116.646 93.6896 117.979 93.577 119.132 93.1205C122.341 95.8859 125.549 98.6503 128.608 101.286C129.663 100.855 130.745 100.413 131.828 99.9714L132.274 100.752C132.075 101.149 131.896 101.558 131.668 101.935C131.498 102.22 131.262 102.465 131.058 103.017C133.323 101.861 134.723 101.968 135.344 104.691C135.58 105.738 136.834 106.547 137.673 107.521C138.686 106.993 139.532 106.551 140.712 105.937C141.372 107.974 142.009 109.941 142.791 112.344C143.961 111.797 144.823 111.395 145.881 110.901C146.385 112.726 146.482 115.078 148.862 113.034C149.463 114.037 150.1 114.988 150.841 116.154C154.003 116.271 156.011 118.855 158.19 121.082C161.142 124.101 161.08 124.178 164.376 121.241C164.331 122.534 164.286 123.827 164.212 125.961C165.116 125.397 165.808 124.965 167.268 124.053C167.273 125.35 167.276 126.193 167.282 127.4C170.613 125.669 171.671 129.035 173.986 130.48C174.074 129.041 174.127 128.165 174.152 127.738C175.266 128.009 176.344 128.016 177.089 128.52C177.956 129.105 178.949 130.058 179.099 130.987C179.209 131.671 177.576 132.742 179.172 133.354C179.894 133.631 180.952 132.995 182.202 132.659C183.495 134.295 186.252 135.042 186.821 138.044C186.968 138.82 188.442 139.58 189.447 139.878C190.566 140.209 191.844 140.005 193.287 140.036C193.375 139.57 193.523 138.784 193.811 137.253C194.754 139.049 195.38 140.248 196.064 141.551C196.386 141.166 196.83 140.634 197.814 139.458C197.877 140.884 197.875 141.628 197.965 142.368C198.044 143.002 198.234 143.621 198.376 144.246C198.753 143.73 199.129 143.213 199.392 142.853C201.253 143.773 203.143 144.707 205.272 145.76C208.083 142.783 208.882 146.146 209.939 147.428C211.286 146.557 212.322 145.715 213.497 145.245C213.77 145.132 214.546 146.295 215.065 146.877C215.334 147.189 215.429 147.806 215.735 147.907C218.696 148.886 221.012 151.721 224.564 151.028C224.68 151.006 224.847 151.253 224.7 151.128C223.988 152.684 223.332 154.115 222.737 155.415C223.439 155.993 224.073 156.514 224.839 157.144C224.903 156.54 224.933 155.908 225.046 155.292C225.148 154.743 225.182 153.982 225.535 153.727C226.063 153.346 226.928 153.035 227.5 153.204C228.523 153.505 229.528 153.866 230.532 154.233L233.565 155.289C233.015 155.876 232.464 156.463 231.397 157.6C233.216 158.105 234.781 158.51 236.324 158.984C236.814 159.137 237.338 159.383 237.69 159.743C240.503 162.609 241.63 163.285 246.196 161.536C247.212 162.448 248.224 163.358 249.57 164.569C249.698 163.422 249.762 162.848 249.899 161.625C250.561 162.918 250.927 163.633 251.34 164.439C252.941 164.254 254.558 163.784 255.116 166.359C255.293 167.173 257.364 167.802 258.657 168.072C261.824 168.765 265.097 168.987 267.065 172.935C267.725 171.183 268.067 170.272 268.121 170.129C270.021 170.254 271.848 169.814 272.68 170.539C274.638 172.239 277.478 170.762 279.293 173.003C280.133 174.007 282.091 174.047 283.525 174.566L295.476 178.906C295.838 179.028 296.184 179.253 296.553 179.292C299.786 179.612 303.013 179.931 306.525 180.279C306.911 179.122 308.52 177.651 305.225 176.75C303.789 176.357 302.896 174.003 301.767 172.546C301.428 172.109 301.168 171.43 300.728 171.282C297.248 170.153 293.804 168.916 289.883 167.593C289.936 167.222 290.069 166.262 290.136 165.783C292.453 166.215 294.473 166.496 296.434 167C297.402 167.241 298.245 167.946 299.176 168.365C301.088 169.234 303.002 170.103 304.933 170.98C305.517 169.442 305.943 168.316 306.655 166.434C307.337 168.13 307.481 169.595 308.25 170.138C309.946 171.338 311.892 172.292 313.869 172.939C315.904 173.574 318.138 173.544 320.207 174.076C321.321 174.36 322.29 175.206 323.32 175.688C329.83 178.536 336.514 180.908 343.571 182.145C347.141 182.782 350.708 183.507 354.218 184.405C357.736 185.264 361.205 186.277 364.689 186.969C365.626 184.808 366.481 182.831 367.455 180.587C369.534 181.025 371.916 181.333 374.15 182.1C374.978 182.384 375.458 183.742 376.216 184.766C377.224 184.388 378.809 183.226 380.191 183.399C381.267 183.543 382.095 185.409 383.084 186.562C383.593 185.419 384.013 184.296 384.572 183.252C386.379 179.879 386.691 179.791 390.096 181.503C390.536 180.356 390.009 178.118 392.562 179.508C393.664 180.104 395.229 179.795 396.593 179.816C397.232 179.835 397.874 179.792 398.515 179.775C398.276 180.468 398.043 181.153 397.8 181.857C397.608 182.375 397.41 182.919 397.169 183.571C400.373 185.449 400.923 178.519 404.235 181.599C404.004 181.9 403.661 182.346 403.075 183.106C405.29 182.587 407.239 182.128 409.187 181.67L409.482 182.673C408.829 183.075 408.178 183.477 407.605 183.83C408.313 185.61 408.993 187.316 409.918 189.638C410.272 186.734 411.35 184.914 413.797 185.003C415.124 185.05 416.466 185.646 417.718 186.203C419.964 187.199 421.939 188.646 424.656 188.705C426.34 188.722 427.993 190.25 429.696 191.044C430.102 191.232 430.858 191.408 431.036 191.202C433.291 188.594 435.953 190.455 438.416 190.32C438.845 190.296 439.416 190.415 439.705 190.704C441.255 192.246 441.24 192.252 442.691 189.796C444.609 192.167 448.61 190.664 450.174 194.392C450.643 193.857 451.246 193.17 451.85 192.482L452.275 193.355C453.369 193.022 455.219 192.919 455.386 192.307C455.704 191.143 455.063 189.687 454.737 187.858C455.875 187.108 456.51 188.338 456.655 189.673C456.883 191.781 457.651 193.245 459.889 193.824C460.088 192.811 460.285 191.819 460.468 190.896C460.796 190.799 461.071 190.647 461.128 190.71C463.631 193.489 465.936 193.376 468.462 190.518C469.14 189.75 470.95 189.789 472.187 189.903C473.684 190.058 474.832 190.395 475.487 188.37C475.743 187.578 477.05 187.204 477.756 186.506C478.326 185.943 479.081 185.169 479.067 184.507C479.055 184 477.993 183.118 477.377 183.099C474.517 182.99 471.877 181.219 468.723 182.832C466.958 183.751 464.444 183.266 462.289 183.104C459.068 182.858 456.177 181.035 452.672 181.68C449.925 182.209 446.992 181.605 444.139 181.597C443.663 181.596 443.176 182.06 442.619 182.347C442.954 182.883 443.218 183.305 443.482 183.728C443.231 183.925 443.016 184.166 442.954 184.129C442.319 183.747 441.356 183.464 441.152 182.882C440.04 179.672 438.515 178.807 435.486 179.081C434.288 179.188 432.344 178.334 431.892 177.324C430.76 174.795 429.626 175.88 427.973 176.503C425.251 177.532 422.47 179.356 419.447 177.175C419.015 176.859 418.038 177.37 417.308 177.502C415.912 177.041 418.379 172.809 414.743 174.545C413.358 175.194 411.955 175.875 410.196 176.642C410.107 175.728 410.023 174.876 409.915 173.772C408.457 176.455 407.046 176.587 405.692 173.87C405.495 173.474 404.795 173.262 404.292 173.166C401.564 172.647 398.83 172.159 396.087 171.736C393.969 171.372 391.831 171.114 389.69 170.914C389.098 170.858 388.381 171.023 387.868 171.352C386.206 172.41 385.511 171.715 385.35 169.947C384.645 170.329 384.013 170.671 383.511 170.941C383.238 170.89 383.088 170.903 383.067 170.853C381.236 166.492 377.118 168.8 374.176 167.652C373.03 167.194 371.554 167.673 370.237 167.58C369.059 167.497 367.783 167.465 366.754 166.966C365.066 166.146 363.564 164.895 362.088 163.904C359.888 165.836 357.037 165.335 355.106 163.53C353.973 162.467 352.247 161.523 350.788 161.562C347.698 161.588 345.195 160.246 342.429 159.268C340.118 158.448 337.724 157.809 335.304 157.286C332.895 156.723 330.448 156.312 328.004 156.051C326.216 155.858 324.19 156.792 322.375 155.626C321.827 155.272 321.204 155.02 320.718 154.595C318.796 152.883 316.695 152.174 314.113 152.834C313.495 152.99 312.553 152.718 312.09 152.269C309.159 149.391 305.366 148.913 301.673 147.987C300.847 147.789 300.175 146.997 299.352 146.735C296.537 145.837 293.704 144.993 290.874 144.13C288.044 143.268 285.265 142.258 282.495 141.229C280.672 140.539 278.896 139.726 277.136 138.88C275.372 138.042 273.632 137.148 271.896 136.249C271.615 136.107 271.276 135.816 271.217 135.525C270.478 131.898 268.645 129.885 266.318 128.558C263.997 127.217 261.151 126.629 258.508 125.653C256.955 125.104 255.617 123.953 254.184 123.08L254.825 121.831C257.309 122.894 259.774 124.006 262.278 125.024C264.612 125.938 266.992 126.742 269.297 127.722L277.636 131.352C280.44 132.502 283.252 133.634 286.096 134.678C289.046 135.754 292.236 136.125 295.255 136.996C298.213 137.887 301.042 139.187 303.936 140.298C306.862 141.458 309.804 142.598 312.832 143.431C313.762 143.687 314.965 142.791 316.017 142.811C318.425 142.857 320.845 142.966 323.19 143.383C325.261 143.702 327.24 144.51 329.282 145.012C330.744 145.369 332.449 144.684 333.465 146.71C333.735 147.246 335.646 146.766 336.798 146.8C337.753 146.827 338.772 146.727 339.653 147.006C342.874 148.07 346.009 149.434 349.263 150.421C353.715 151.831 358.281 152.855 362.847 153.818C364.979 154.249 367.315 153.802 369.375 154.384C372.601 155.266 376.355 153.442 379.182 156.562C379.875 157.326 381.559 157.043 383.279 157.322C384.768 159.375 386.681 159.616 390.231 158.179C393.793 156.73 395.793 157.301 398.314 159.861C399.262 160.806 401.053 160.766 402.471 161.142C404.221 161.603 405.154 160.847 405.843 158.98C406.111 158.255 407.56 157.651 408.467 157.627C410.195 157.583 411.924 157.978 413.648 158.226C416.07 158.529 418.509 158.735 420.906 159.175C423.183 159.59 425.457 160.124 427.66 160.869C428.349 161.109 428.795 162.178 429.216 162.686C430.624 161.788 432.147 160.816 433.384 160.026C434.891 161.961 436.382 163.873 438.23 166.245C439.679 162.319 441.057 163.716 442.482 165.46C442.963 164.517 443.319 163.82 443.838 162.8C444.734 163.633 445.438 164.288 446.28 165.072C446.82 164.692 447.466 164.238 448.145 163.761C448.634 165.67 453.725 168.73 455.292 168.121C455.643 167.983 455.926 167.528 456.156 167.158C457.407 165.164 458.431 162.92 459.917 161.143C460.718 160.187 462.291 159.681 463.541 159.585C464.968 159.476 466.5 159.852 467.842 160.426C468.317 160.627 468.362 162.029 468.604 162.883L467.885 163.21C467.603 162.82 467.323 162.428 467.018 162.004C466.302 162.648 465.587 163.293 465.204 163.637C466.22 164.36 467.26 165.099 468.319 165.851C469.374 164.71 470.882 164.595 472.612 164.803C474.343 164.996 476.295 165.551 478.222 165.845C478.517 165.889 479.029 166.411 478.998 166.477C478.328 167.948 479.557 167.623 480.128 168.031C483.003 170.07 485.299 169.694 487.419 166.405C487.779 166.752 488.121 167.082 488.58 167.525C489.615 165.699 490.965 165.234 492.632 166.902C492.9 167.17 493.472 167.276 493.846 167.184C495.68 166.732 497.42 160.369 496.062 159.045C495.638 158.63 494.664 158.409 494.168 158.654C491.712 159.874 489.555 158.062 487.251 158.073C486.382 158.089 485.512 158.199 484.644 158.316C480.109 158.88 475.559 159.662 470.981 159.972C469.603 160.052 468.06 159.384 466.808 158.636C463.595 156.708 460.784 158.831 457.492 159.747C457.8 158.909 457.992 158.386 458.167 157.91C455.595 157.265 453.128 156.263 450.609 156.112C447.819 155.924 444.964 156.691 442.134 156.737C440.573 156.767 438.753 156.87 437.496 156.092C434.633 154.313 431.768 154.962 428.838 155.452C426.609 155.788 424.585 156.224 422.705 154.038C421.785 152.967 419.854 152.846 418.337 152.52C415.597 151.959 412.859 151.335 410.095 150.933C406.984 150.49 403.822 150.381 400.696 149.994C399.154 149.784 397.662 149.237 395.907 148.784C395.493 147.014 396.785 146.156 398.701 147.558C399.353 148.03 399.841 148.788 400.853 149.068C400.692 148.557 400.529 148.045 400.333 147.426C400.37 147.406 400.502 147.286 400.644 147.268C400.994 147.218 401.449 147.037 401.688 147.202C406.463 150.408 412.093 148.824 417.24 149.869C421.869 150.758 426.559 151.367 431.232 152.03C435.802 152.627 440.356 153.381 444.941 153.87C448.151 154.162 451.397 154.055 454.594 154.412C455.854 154.553 457.114 154.717 458.374 154.892L462.157 155.338C464.68 155.636 467.206 155.921 469.74 156.08C470.752 156.141 471.846 154.652 472.978 153.797C472.982 154.238 472.99 154.983 472.998 155.728C476.691 156.664 477.899 155.642 477.638 150.875C478.423 151.869 479.191 152.408 479.14 152.84C478.795 155.825 480.812 156.406 482.554 156.504C486.531 156.773 490.53 156.339 494.514 156.313C497.754 156.284 500.998 156.566 504.238 156.431C506.492 156.361 508.736 156.029 510.611 155.85C511.175 154.415 511.572 153.406 511.97 152.396L512.803 152.777C512.657 153.503 512.511 154.231 512.35 155.026C512.615 155.026 512.886 155.1 513.1 155.01C513.649 154.778 514.395 154.083 514.671 154.261C517.05 155.84 518.793 154.923 520.292 152.73C520.434 152.523 520.736 152.343 520.968 152.337C523.77 152.252 526.586 152.376 529.376 152.123C531.325 151.943 533.239 151.375 535.175 151.067C535.643 150.993 536.158 151.256 536.791 151.396C536.764 152.362 536.74 153.207 536.715 154.052C538.002 154.781 539.742 154.903 541.39 154.545C543.035 154.162 544.587 153.274 545.512 152.064C546.595 150.642 548.076 150.052 549.429 151.32C551.564 153.315 553.55 151.684 555.55 151.388C555.923 151.33 556.536 149.508 556.319 149.249C555.531 148.307 554.442 147.687 552.996 146.535C552.42 143.752 553.958 140.687 554.822 137.423C554.968 136.879 555.72 136.566 556.169 136.12C556.629 135.665 557.376 135.24 557.448 134.696C557.759 132.335 559.561 133.052 560.498 133.111C561.907 133.203 563.299 134.217 564.599 134.151C565.785 133.809 566.973 133.467 568.139 133.041C570.037 132.366 570.643 130.89 569.968 128.929C572.018 128.337 573.899 127.574 575.845 127.297C577.503 127.077 579.237 127.375 580.933 127.396C578.905 129.477 578.645 133.539 580.86 137.394C580.745 135.454 580.676 134.302 580.635 133.6C581.566 134.129 582.609 135.2 583.633 135.208C586.683 135.23 586.433 132.519 586.137 130.109C590.938 129.846 590.574 130.087 591.648 138.675C592.873 136.458 593.715 134.825 594.641 133.084C593.751 132.767 592.97 132.488 592.212 132.218C592.463 128.83 594.194 128.286 598.126 130.332C598.018 129.399 597.919 128.528 597.801 127.491C599.027 127.668 600.07 127.818 601.235 127.986C602.134 126.137 603.014 124.335 603.992 122.217C605.523 123.558 607.038 124.884 608.771 126.402C609.134 125.363 609.446 124.471 609.929 123.089C610.271 124.956 610.528 126.365 610.785 127.775L611.214 128.046C612.052 125.396 612.889 122.744 613.798 119.868C616.694 121.646 619.391 123.241 622.331 124.983C623.307 123.997 624.305 122.989 625.538 121.744C624.736 121.008 624.1 120.421 623.275 119.662C623.504 118.979 623.784 118.143 624.309 116.576C625.517 117.879 626.467 118.904 627.823 120.368C628.294 119.528 628.861 118.52 629.438 117.496C629.72 117.006 630.035 116.544 630.335 116.071C630.702 116.531 631.22 116.932 631.406 117.466C631.755 118.463 631.908 119.539 632.764 120.813C632.997 119.503 633.338 118.212 633.43 116.882C633.631 113.955 634.651 114.628 635.807 116.105C636.195 115.591 636.539 114.719 636.9 114.742C637.561 114.797 638.613 115.197 638.792 115.726C639.043 116.478 638.651 117.476 638.61 117.781C641.936 117.763 645.59 117.562 649.274 117.815C650.858 117.934 652.447 120.323 654.04 118.133C657.953 121.841 660.389 116.652 664.408 117.174C663.315 116.115 662.809 115.626 661.705 114.555C666.189 116.139 670.08 116.942 672.432 111.876C673.041 112.684 673.503 113.296 674.373 114.449C674.848 112.533 675.093 111.546 675.446 110.118C677.406 110.961 679.169 111.718 681.207 112.594C683.383 111.179 685.85 109.408 688.314 107.668L687.853 106.726L691.497 107.005C691.903 107.037 692.622 107.255 692.669 107.112C693.536 104.502 695.558 106.545 697.032 105.853C697.063 105.519 697.121 104.911 697.133 104.782C698.803 104.565 700.215 104.382 701.627 104.198L701.122 103.436C701.882 102.42 702.538 101.262 703.45 100.486C703.805 100.185 704.874 100.718 705.505 101.136C705.704 101.267 705.581 102.278 705.508 102.861C705.317 104.357 705.078 105.86 704.886 106.984C705.371 107.316 706.64 107.676 706.989 108.476C707.758 110.246 706.332 110.258 705.263 110.564C703.445 111.108 701.698 111.864 699.37 112.744C701.618 113.886 704.559 114.331 703.501 117.809C703.209 118.759 702.525 119.532 702.119 120.22C702.694 120.043 703.709 119.488 704.782 119.445C707.68 119.309 708.329 116.272 710.129 114.743C711.457 113.641 712.251 111.794 713.382 110.116C713.117 109.697 712.684 109.015 712.092 108.079C713.232 107.892 714.109 107.75 715.092 107.589C715.117 105.195 715.506 103.689 718.227 103.109C721.736 102.362 724.906 100.192 728.125 98.5536C728.373 98.4315 728.849 98.7881 729.754 99.1111C728.516 99.6854 727.747 100.042 726.364 100.685C728.352 101.274 729.628 101.651 731.481 102.2C730.757 100.869 730.26 99.9547 729.355 98.2906C730.223 97.8877 731.106 97.4207 732.035 97.062C734.34 96.2047 736.833 95.7776 739.207 95.0855C741.566 94.3765 743.833 93.4267 745.353 91.244C747.56 88.1031 751.01 88.6511 753.907 87.696C756.224 86.946 758.647 86.5852 760.577 84.8832C763.096 82.5428 763.171 82.6711 766.193 85.5523C763.374 87.7781 760.337 89.9218 757.379 92.055C758.389 92.8029 759.252 93.4424 760.513 94.3765C762.02 93.5413 763.679 92.6209 765.414 91.6595C767.101 90.6529 768.854 89.5831 770.563 88.4523C771.393 87.9001 772.134 87.2121 772.85 86.4968C773.545 85.7637 774.229 85.0137 774.982 84.3668C775.62 83.8187 776.622 83.1676 777.355 83.4085C778.715 83.8545 779.689 83.52 780.536 82.9614C781.383 82.4008 782.051 81.5761 782.9 81.0902C783.519 80.7304 783.743 79.1421 783.525 78.1512C783.218 76.749 782.32 76.7448 781.136 77.0698C780.437 77.2624 779.199 76.0768 778.178 75.4878C779.421 73.4082 779.385 73.4314 784.212 75.8265C784.038 74.925 783.9 74.2171 783.68 73.08C784.493 73.6302 785.2 73.972 785.761 74.5011C789.748 78.2595 790.78 80.703 789.492 84.2668C790.084 85.121 790.713 86.0298 791.49 87.1522C790.799 87.2795 790.327 87.3657 789.855 87.453C793.242 87.6371 794.878 90.6739 797.195 92.6115C798.51 93.7086 800.402 94.1114 802.037 94.387C802.427 94.4533 802.875 92.9102 803.33 92.0392C804.887 92.2138 806.61 92.4085 808.506 92.6209C808.608 91.751 808.703 90.9232 808.765 90.1237C814.422 90.8948 817.417 95.4842 820.651 99.5329C822.919 99.2478 825.121 98.2748 827.095 100.811C827.464 101.286 829.102 101.38 829.629 100.956C831.279 99.6696 832.194 100.743 833.071 101.982C834.626 104.185 836.077 105.276 838.352 102.889C840.054 101.161 841.898 99.4487 843.98 98.2317C845.348 97.4281 847.049 96.0375 849.1 97.6626C849.593 98.056 850.56 97.7268 851.197 97.9877C852.49 98.5262 853.718 99.2468 854.982 99.8863C854.189 100.852 853.536 102.014 852.523 102.698C851.53 103.389 850.234 103.651 849.104 104.085C849.177 107.202 846.631 109.636 843.825 109.347C842.717 109.246 841.546 109.75 840.459 110.115C840.339 110.155 840.338 111.407 840.625 111.62C841.821 112.507 843.098 113.353 844.474 113.894C845.015 114.107 845.879 113.497 846.297 113.359C847.586 115.57 848.735 117.541 850.251 120.14C848.655 119.755 847.861 119.563 846.488 119.233C846.865 120.335 847.008 121.146 847.391 121.812C848.22 123.259 849.78 124.337 848.647 126.533C848.352 127.07 849.073 128.539 849.752 129.055C851.016 130.018 852.363 130.674 851.672 132.682C851.608 132.866 852.673 133.574 853.295 133.66C853.695 133.719 854.397 133.176 854.675 132.719C855.736 131.031 855.804 128.524 858.977 128.947C859.569 129.023 860.739 127.112 861.342 125.988C861.892 124.954 862.482 123.993 860.89 122.813C859.926 122.091 860.495 119.363 860.276 116.727C861.818 116.258 864.034 115.667 867.199 114.626C869.941 109.935 870.765 117.425 873.753 116.409C874.071 116.051 874.723 115.319 875.374 114.589C876.529 115.757 877.565 116.807 879.209 118.474C877.492 119.753 875.649 121.126 874.215 122.194C875.388 122.996 876.975 123.493 877.453 124.581C877.806 125.375 876.742 127.874 876.132 127.965C873.963 128.376 871.753 128.098 869.583 128.056L873.031 123.804L872.678 123.435C871.698 124.11 870.72 124.786 870.03 125.261C868.767 124.644 867.686 124.115 866.604 123.586L866.296 124.208L869.719 128.028ZM562.981 268.151C562.883 266.902 562.79 265.941 562.737 264.979C562.545 261.596 560.53 260.27 557.081 261.048C555.747 261.349 554.295 261.143 552.901 261.233C551.492 261.323 550.088 261.51 548.68 261.629C547.606 261.731 546.529 261.783 545.453 261.78C543.809 261.764 542.16 261.545 540.529 261.641C531.767 262.223 522.996 262.651 514.216 262.837C507.098 262.852 499.981 262.707 492.874 262.377C489.515 262.249 486.119 261.836 482.81 262.156C479.599 262.417 476.508 262.929 473.539 261.275C473.215 261.095 472.728 261.136 472.319 261.144L466.964 261.245L461.611 261.235L450.89 261.201C450.586 261.199 450.276 261.197 449.979 261.138C446.3 260.378 442.662 259.349 438.957 258.924C436.316 258.611 433.569 259.156 430.871 259.212C432.758 260.792 434.622 261.773 436.623 262.31C438.182 262.732 440.775 263.296 441.4 262.597C443.394 260.359 444.283 261.942 445.24 263.145C446.587 262.51 447.715 261.98 448.843 261.45L449.39 262.071C448.794 263.235 448.39 264.556 447.528 265.509C446.907 266.197 445.575 266.891 444.729 266.728C440.416 265.887 436.203 264.722 431.72 265.337C429.888 265.568 427.984 265.437 426.181 265.778C425.601 265.888 425.252 266.985 424.797 267.631C425.548 267.805 426.301 268.111 427.053 268.122C428.102 268.137 429.148 267.929 430.285 267.807C430.423 268.891 430.57 269.564 430.579 270.236C430.589 270.898 430.459 271.557 430.414 272.001C431.498 272.587 432.414 273.068 432.599 273.155C435.274 272.768 437.356 272.314 439.461 272.205C441.114 272.119 442.797 272.49 444.47 272.603C446.823 272.761 448.868 272.389 449.56 269.886C449.88 268.724 449.896 266.817 450.62 266.537C453.585 265.386 456.707 264.322 459.849 264.018C462.285 263.773 464.863 264.748 467.534 265.15C467.671 265.449 468.007 266.183 468.399 267.036C467.368 267.334 465.892 267.343 465.593 267.888C464.303 270.283 461.64 269.937 459.626 270.87C458.949 271.184 458.194 272.169 458.241 272.804C458.306 273.621 459.144 274.394 459.652 275.187C460.297 274.824 461.092 274.579 461.553 274.071C462.296 273.251 462.816 272.257 463.15 271.754C464.455 272.848 465.51 274.493 466.698 274.573C469.731 274.784 473.095 274.953 475.804 273.95C478.778 272.847 478.187 274.152 478.031 275.653C477.933 276.582 477.65 277.492 477.442 278.439C479.056 278.769 480.602 278.792 481.807 279.401C483.523 280.266 483.563 280.313 484.247 278.687C484.801 277.362 485.66 276.145 486.378 274.878C486.577 277.405 488.977 280.683 490.829 280.217C493.027 279.663 495.079 278.648 497.267 277.799C501.159 281.497 506.164 278.74 510.681 279.14C515.1 279.55 519.686 279.41 524.347 277.698C524.92 278.005 525.999 278.585 527.167 279.211C527.625 278.641 528.101 278.045 528.141 277.997C530.105 278.365 531.632 278.878 533.169 278.892C535.77 278.907 538.379 278.664 540.978 278.469C544.042 278.241 546.598 276.404 546.536 273.642C546.492 271.625 545.126 269.631 544.64 268.362C542.517 268.767 541.178 269.272 539.921 269.14C539.396 269.085 538.517 267.504 538.738 266.922C539.09 265.988 540.079 264.855 541.037 264.592C543.718 263.847 546.411 264.352 549.12 264.716C551.825 265.069 554.549 265.359 557.24 264.316C557.31 264.289 557.432 264.376 557.768 264.492C558.079 265.031 558.48 265.729 558.938 266.528C558.409 266.59 558.208 266.595 558.018 266.639C556.76 266.934 555.319 266.985 554.313 267.632C553.697 268.028 553.75 269.344 553.501 270.248C554.871 270.519 556.239 270.804 557.616 271.052C557.914 271.105 558.265 270.947 558.549 271.023C559.069 271.162 559.561 271.403 560.063 271.6C559.677 272.065 559.381 272.66 558.878 272.956C558.385 273.248 557.685 273.235 557.08 273.354C560.13 277.712 562.538 272.84 565.243 272.613C566.178 272.525 566.864 269.586 567.857 267.519C565.777 267.789 564.554 267.985 562.981 268.151ZM633.914 132.153C632.552 132.681 631.783 135.235 629.767 133.113C629.397 132.726 627.994 133.366 627.166 133.765C626.928 133.878 626.794 134.998 627.015 135.319C627.948 136.669 629.037 137.889 630.274 139.393C630.906 137.897 631.325 136.903 631.724 135.96C636.346 135.029 635.131 140.441 636.599 141.599C638.284 140.944 639.57 140.191 640.953 139.958C643.68 139.528 646.165 138.786 648.332 136.774C649.284 135.883 651.093 136.167 652.446 135.711C653.436 135.372 654.685 134.991 655.163 134.118C656.006 132.615 655.057 131.431 653.695 130.693C653.064 130.342 652.398 130.009 651.859 129.514C649.78 127.599 648.604 127.796 646.605 129.406C644.479 131.106 642.603 134.592 639.012 131.471C638.513 131.04 637.124 131.473 636.422 131.972C635.915 132.334 635.862 133.464 635.432 134.768C634.694 133.497 634.298 132.814 633.914 132.153ZM824.76 139.495C823.285 139.735 821.86 140.321 820.647 140.048C819.491 139.816 815.163 138.366 814.32 138.857C812.497 139.927 810.684 141.038 809.001 142.315C807.147 143.742 805.322 145.203 803.581 146.773C803.014 147.277 802.749 148.12 802.342 148.811C803.22 148.913 804.639 149.403 804.903 149.048C806.331 147.124 808.099 146.732 809.968 146.693C811.812 146.617 813.755 146.896 815.499 146.377C816.978 145.935 818.895 146.991 820.628 147.357L820.393 146.263C821.508 145.419 822.492 144.304 823.708 143.706C826.011 142.603 826.323 141.528 824.76 139.495ZM805.11 163.183C802.608 162.946 801.061 162.457 799.644 162.722C797.358 163.137 795.864 165.925 793.047 165.243C792.816 165.186 792.248 166.229 791.886 166.794C790.505 168.957 789.615 171.769 786.088 171.316C785.8 171.279 785.409 171.86 785.064 172.154L785.267 173.091C786.313 172.915 787.447 172.934 788.397 172.515C790.014 171.805 791.391 171.024 792.82 172.823C793.133 173.216 794.532 172.904 795.389 172.708C795.982 172.572 796.477 172.029 797.057 171.754C799.38 170.608 801.701 169.461 804.424 168.118C801.759 166.549 802.014 165.074 805.11 163.183ZM598.749 268.51L597.593 268.185L595.467 272.853C596.948 273.263 598.522 274.116 599.894 273.876C602.934 273.324 605.869 272.222 608.82 271.295C609.184 271.182 609.57 270.822 609.719 270.492C609.929 270.032 610.15 269.394 609.958 269.014C609.748 268.599 608.937 268.043 608.619 268.151C605.792 269.11 604.853 267.248 603.413 265.523C603.215 267.461 603.018 269.401 602.899 270.589C601.008 271.22 599.724 271.647 598.285 272.126C598.484 270.579 598.617 269.545 598.749 268.51ZM473.69 276.577C469.67 276.824 466.762 277.089 463.085 277.221C467.177 279.477 462.165 279.194 462.909 280.676C465.038 282.674 470.911 282.055 473.92 279.533C475.459 281.445 477.183 282.465 479.364 279.95C478.167 280.1 476.973 280.248 476.299 280.332C475.201 278.751 474.223 277.344 473.69 276.577ZM402.863 217.116C401.709 214.408 395.067 212.62 392.461 213.588C392.029 213.748 391.848 214.59 391.46 215.276C395.608 215.946 399.236 216.53 402.863 217.116ZM614.405 264.279C612.349 264.884 610.289 265.46 607.984 266.055C611.042 268.457 613.377 268.864 614.405 264.279ZM703.387 108.837L702.937 107.954C701.676 108.997 698.888 106.77 698.895 110.528L703.387 108.837ZM215.41 174.796L215.689 174.41L208.421 171.05L208.206 171.466L215.41 174.796Z" />
<path d="M532.442 139.785C532.594 140.675 532.746 141.564 532.777 141.753C531.715 143.588 530.846 145.091 529.97 146.603C529.469 147.437 528.96 148.286 528.455 149.127C527.851 148.293 527.212 147.454 526.664 146.563C526.427 146.179 526.369 145.657 526.187 145.052C525.135 145.454 524.138 145.836 523.811 145.96C521.966 144.376 520.575 143.18 519.194 141.994C517.589 144.191 514.306 144.925 516.438 149.146C513.397 148.156 510.315 151.683 508.081 147.326C506.48 148.402 504.853 149.496 503 150.741C502.768 148.762 502.625 147.544 502.443 145.991C502.882 146.432 503.154 146.705 503.641 147.195C503.755 146.402 503.849 145.763 504.019 144.59C508.467 147.22 510.075 141.77 513.664 139.945C512.588 138.278 511.487 136.429 510.247 134.726C510.01 134.4 508.963 134.368 508.651 134.679C507.229 136.093 505.928 137.678 504.369 139.425C504.129 138.957 503.551 138.33 503.661 137.966C504.406 135.49 504.971 132.786 506.301 130.799C506.706 130.193 509.376 131.603 511.072 132.108C511.343 131.66 511.661 131.14 511.838 130.85C513.649 131.708 515.279 132.43 516.916 133.14L516.848 132.475C517.988 132.22 519.118 131.85 520.266 131.751C521.092 131.68 522.079 133.234 522.755 131.39C522.794 131.282 523.733 131.368 523.829 131.596C524.003 132.013 523.894 132.608 523.842 133.121C523.74 134.162 523.598 135.198 523.471 136.237L524.429 136.447C525.103 134.606 525.774 132.765 526.365 131.15C527.823 131.654 529.14 132.382 530.442 132.358C531.989 132.317 533.518 131.591 535.754 130.969C534.729 132.157 534.288 132.667 533.849 133.179C534.579 133.75 535.307 134.319 536.042 134.892C536.105 134.941 536.214 134.898 536.293 134.93L539.165 136.068C538.551 137.615 538.271 139.728 537.205 140.533C536.334 141.192 534.531 140.293 533.15 140.073C532.896 140.033 532.649 139.93 532.398 139.859C531.923 138.853 531.202 136.909 531.024 136.972C527.358 138.24 529.933 135.272 529.529 133.922C526.543 134.028 528.701 137.549 527.167 138.489C529.158 138.21 530.253 141.787 532.442 139.785Z" />
<path d="M337.143 246.981C339.412 247.208 341.634 247.539 343.835 247.921C346.03 248.323 348.219 248.724 350.409 249.125C354.792 249.914 359.182 250.729 363.744 251.179C361.601 253.938 359.871 256.162 357.978 258.598C357.957 257.572 357.938 256.635 357.918 255.697L357.368 255.43C356.382 256.79 355.394 258.151 354 260.075C353.86 258.553 353.772 257.588 353.689 256.689C349.561 256.796 345.41 257.935 341.319 255.876C340.282 255.364 338.706 255.943 337.562 255.53C333.869 254.174 330.276 252.616 326.636 251.145C325.613 250.733 324.41 250.756 323.177 251.027C321.794 250.106 320.62 248.062 318.868 251.122C315.479 248.483 311.797 247.55 308.675 248.378C306.323 247.397 304.617 246.725 302.954 245.964C302.438 245.726 302.095 245.131 301.578 244.898C300.565 244.443 299.441 243.752 298.444 243.824C296.934 243.935 295.261 243.733 293.611 243.135C291.967 242.517 290.362 241.472 288.968 239.971C290.126 240.055 291.428 239.83 292.406 240.284C294.653 241.344 296.677 241.698 299.252 241.153C301.238 240.719 303.652 241.814 305.872 242.247C308.354 242.717 310.89 243.07 313.403 243.436C315.917 243.804 318.38 244.284 320.687 245.161C324.613 246.643 327.702 246.192 331.264 245.253C333.555 244.634 335.97 245.06 337.143 246.981Z" />
<path d="M351.348 136.819C352.989 137.25 354.059 137.532 355.128 137.813C360.32 139.165 365.541 140.401 370.756 141.661C375.779 142.755 380.836 143.695 385.863 144.769C388.26 145.227 390.661 145.698 393.013 146.348C393.647 146.522 394.11 147.356 395.048 148.271C391.921 148.512 389.477 148.958 387.084 148.8C385.107 148.693 383.258 147.558 381.293 147.244C379.689 146.979 377.99 147.249 375.942 147.287C375.93 147.102 375.88 146.272 375.79 144.773C375.193 145.535 374.798 146.039 374.215 146.782C373.795 145.609 373.501 144.79 373.341 144.344C370.655 143.812 368.33 143.158 365.968 142.674C363.778 142.213 361.587 141.645 359.357 141.514C355.91 141.343 354.057 138.601 351.348 136.819Z" />
<path d="M11.0457 24.1809C11.1729 23.1658 11.2665 22.4243 11.3475 21.7795C13.4012 21.0116 37.0371 43.6072 38.0708 47.5013C37.0014 46.7944 36.301 46.3757 35.6501 45.8897C34.853 45.2954 34.0686 44.679 33.3357 44.009C32.7742 43.4957 32.3493 42.834 31.7815 42.326C29.7793 40.4494 27.7749 38.5728 25.7044 36.7731C25.4552 36.5553 24.8054 36.7994 24.126 36.8425C24.5288 37.6209 24.8159 38.1773 25.3238 39.1556C23.777 38.7296 21.7128 38.5928 21.5939 38.0511C20.8126 34.4652 16.9671 33.9656 15.3277 31.3958C14.7115 30.4523 13.9354 29.088 14.2046 28.197C15.0406 25.4042 13.8649 24.4386 11.0457 24.1809Z" />
<path d="M279.624 237.737C275.196 236.386 271.149 234.9 267.065 233.524L266.944 232.525L272.928 228.698C276.107 232.345 276.073 232.315 280.8 230.674C281.7 230.363 283.801 230.87 284.001 231.41C284.368 232.403 284.112 233.986 283.433 234.808C282.384 236.078 280.753 236.913 279.624 237.737Z" />
<path d="M127.898 165.329C126.931 164.93 126.307 164.626 125.655 164.418C125.109 164.244 124.236 164.361 124.014 164.04C122.901 162.421 121.242 162.524 119.649 162.091C118.893 161.87 118.542 160.372 117.775 159.733C115.993 158.248 114.068 156.933 111.946 155.359C112.102 154.943 112.376 154.212 112.629 153.54C111.336 153.253 110.228 153.004 108.619 152.646C112.696 149.731 118.554 149.958 120.792 152.631C120.035 152.946 118.625 153.201 118.605 153.597C118.55 154.693 118.727 156.166 119.445 156.924C121.708 159.361 124.381 161.374 126.847 163.616C127.328 164.05 127.556 164.752 127.898 165.329Z" />
<path d="M65.8141 89.3937C65.9845 88.8299 66.2316 88.0115 66.4808 87.1921C67.4293 87.5929 68.524 87.8053 69.2979 88.426C72.1025 90.7285 75.0121 92.9133 77.7262 95.3232C78.9061 96.3551 79.7568 97.7636 80.7778 99.0269C79.1216 103.154 78.1563 103.354 74.8355 100.232C74.2003 99.637 73.4979 99.111 72.4579 98.2474C71.5735 96.0606 70.6576 93.3677 69.3347 90.8485C68.9162 90.0532 67.1927 89.9259 65.8141 89.3937Z" />
<path d="M546.983 141.772C547.208 145.856 550.359 143.844 551.93 145.057C550.152 146.89 546.449 146.728 543.828 145.055C542.861 145.47 541.754 146.26 541.494 145.995C540.714 145.197 539.912 144.011 539.794 142.904C539.676 141.804 540.367 140.612 540.701 139.461L541.721 139.849C541.466 140.693 540.962 141.563 541.029 142.374C541.082 143.026 541.824 143.598 541.824 143.598C543.309 142.823 544.475 142.491 545.294 141.701C546.009 141.012 546.495 139.864 546.763 138.811C546.92 138.197 546.461 137.367 546.346 136.896C547.554 136.558 548.595 136.059 549.655 136.028C550.696 135.998 551.761 136.44 552.814 136.675C552.409 139.306 552.319 139.333 549.855 137.182C551.229 141.043 551.609 143.983 546.983 141.772Z" />
<path d="M195.846 201.704C194.393 201.725 193.234 201.848 192.09 201.72C191.191 201.619 189.883 201.464 189.496 200.898C187.498 197.928 184.566 198.113 180.782 197.86C182.149 195.812 183.302 194.086 184.752 191.912C186.466 192.644 188.467 193.499 190.469 194.353L190.484 195.388L184.416 196.038L184.61 197.33C186.56 197.178 188.506 197.028 190.458 196.878C191.638 196.766 193.205 196.157 193.906 196.664C195.199 197.597 197.043 198.813 195.847 200.926C195.726 201.137 195.841 201.475 195.846 201.704Z" />
<path d="M51.946 90.6886C51.5612 89.7345 51.2604 88.9908 50.8924 88.0788C46.7461 88.5238 45.5514 84.5603 43.1223 82.3071C42.239 81.4814 41.3662 80.1224 40.403 80.0056C37.7478 79.6858 36.6405 77.8934 35.6384 75.9275C35.3954 75.4509 35.4438 74.4516 35.7708 74.196C36.1525 73.8962 36.9855 74.1182 37.6185 74.175C37.7626 74.1876 37.8614 74.5179 38.0297 74.5915C40.6628 75.7486 40.8478 80.5831 45.0846 79.4313C45.1939 79.4008 45.5094 80.4705 45.8985 80.8576C47.4874 82.4155 48.9543 84.1889 50.8135 85.3681C52.761 86.6093 53.5497 88.6027 51.946 90.6886Z" />
<path d="M101.282 105.93C102.52 104.376 103.309 103.385 104.064 102.438C105.27 102.774 106.328 103.069 107.506 103.395C107.164 104.248 106.823 105.09 106.496 105.901C107.769 105.469 108.903 105.059 110.053 104.69C111.425 104.238 112.254 104.463 112.486 106.149C112.639 107.258 113.575 108.281 113.659 109.378C113.705 109.969 112.688 110.629 112.149 111.258C111.662 110.641 111.095 110.066 110.721 109.391C110.513 109.013 110.623 108.466 110.635 108.637C107.445 107.806 104.662 106.923 101.282 105.93Z" />
<path d="M370.031 255.599C370.146 255.308 370.54 253.879 370.729 253.907C372.429 254.149 374.092 254.646 376.175 255.17C377.659 253.977 379.792 253.629 381.778 254.048C383.769 254.442 385.621 255.569 386.529 257.425L382.011 257.325C380.504 257.276 378.999 257.226 377.496 257.177C376.943 257.164 376.395 257.685 375.835 257.689C374.976 257.696 374.063 257.586 373.255 257.306C372.379 257.002 371.597 256.448 370.031 255.599Z" />
<path d="M174.065 103.188C176.442 103.198 178.366 103.719 180.032 104.561C181.695 105.408 183.099 106.574 184.466 107.792C184.793 108.084 184.215 110.085 184.155 110.082C182.287 109.988 180.101 110.257 178.652 109.357C177.387 108.571 177.025 106.411 176.15 104.943C175.841 104.418 175.182 104.103 174.065 103.188Z" />
<path d="M123.174 167.373C120.663 167.019 118.562 167.703 116.994 164.836C116.253 163.458 113.252 163.228 111.397 162.228C110.254 161.613 109.189 160.641 108.436 159.606C108.191 159.269 109.037 158.223 109.382 157.5C110.162 157.921 111.63 158.427 111.607 158.747C111.469 160.742 113.15 160.557 114.198 161.119C116.833 162.518 119.465 163.915 122.103 165.315C122.575 165.574 122.711 166.442 123.174 167.373Z" />
<path d="M502.208 139.357C499.753 140.958 497.744 142.15 495.54 143.523C496.36 144.244 497.117 144.911 497.874 145.579L497.932 146.424L493.317 147.332C493.387 146.245 493.456 145.156 493.534 143.95C493.491 143.933 493.118 143.794 492.698 143.636C492.868 143.334 492.921 143.134 493.039 143.048C494.565 141.937 496.503 141.192 497.51 139.66C498.958 137.446 500.107 138.512 502.208 139.357Z" />
<path d="M866.389 191.539C865.585 189.579 864.745 187.635 864.003 185.648C863.914 185.412 864.423 184.568 864.57 184.564C866.703 184.485 869.7 183.631 870.827 184.615C874.438 187.762 868.743 188.942 867.628 191.166L866.389 191.539Z" />
<path d="M384.957 246.508C384.974 248.276 384.982 249.305 384.997 250.752C381.781 250.256 378.272 249.535 374.163 248.793C376.288 247.012 377.471 245.544 380.176 246.897C381.412 247.507 383.397 246.718 384.957 246.508Z" />
<path d="M856.239 106.903C856.848 106.795 858.079 106.605 859.274 106.346C859.213 108.359 859.076 110.005 858.91 112.528C857.151 112.717 854.842 112.965 852.534 113.214L852.219 112.572C853.51 111.839 851.936 108.636 855.289 109.584C855.309 109.59 855.432 109.248 855.607 108.74C855.781 108.233 856.011 107.564 856.239 106.903Z" />
<path d="M139.565 165.421C137.514 165.51 136.209 165.567 134.772 165.628C133.619 162.632 131.032 162.959 128.435 163.241C128.489 160.472 130.79 159.191 133.229 160.662C134.905 161.673 136.241 163.28 138.514 163.121C138.791 163.101 139.287 164.793 139.565 165.421Z" />
<path d="M693.287 97.4836C695.249 95.0905 697.828 93.9787 700.691 93.2918C701.254 93.1466 701.586 92.1999 702.569 90.8977C702.624 92.3756 702.922 93.4001 702.63 93.9555C701.383 96.378 699.151 96.9208 696.668 96.7851C696.283 96.7641 695.927 97.1648 695.555 97.3668L693.691 98.3713L693.287 97.4836Z" />
<path d="M337.235 176.345C337.434 175.821 337.609 175.358 337.907 174.575C336.634 174.869 335.758 175.073 334.76 175.302C334.583 174.162 334.427 173.155 334.242 171.971C335.053 171.83 335.771 171.61 336.488 171.597C339.4 171.532 340.57 175.892 343.855 174.51C342.953 175.274 342.051 176.037 340.858 177.045C340.094 176.898 338.768 176.64 337.235 176.345Z" />
<path d="M267.767 243.311C266.56 241.806 265.559 240.561 264.533 239.28C262.254 241.288 258.135 241.047 254.268 238.177C256.709 238.369 259.181 238.439 261.626 238.609C264.053 238.788 266.493 238.969 269.167 239.167C268.769 240.345 268.349 241.59 267.767 243.311Z" />
<path d="M168.688 184.826C171.295 186.201 174.045 187.373 176.496 188.949C177.985 189.93 177.349 191.047 175.56 191.067C174.322 191.081 173.1 191.057 172.074 190.657C171.056 190.24 170.24 189.432 169.801 187.914C169.576 187.135 168.802 186.477 168.282 185.763L168.688 184.826Z" />
<path d="M203.79 204.344C202.718 205.473 201.954 206.279 201.188 207.085C199.493 205.704 197.839 204.354 196.055 202.9C199.862 199.887 202.237 200.592 203.79 204.344Z" />
<path d="M162.663 178.234C163.014 179.834 163.338 181.311 163.7 182.96C165.389 182.891 166.736 182.835 168.111 182.778C167.231 183.898 166.394 184.963 165.856 185.648C163.66 185.156 161.708 184.719 159.554 184.236C162.187 182.891 158.166 178.051 162.663 178.234Z" />
<path d="M152.56 188.197C156.379 186.361 159.492 187.708 162.475 190.68C158.986 192.413 154.934 191.253 152.56 188.197Z" />
<path d="M191.662 115.012L202.116 117.927L202.226 118.513C201.045 118.79 199.829 119.367 198.683 119.271C196.671 119.103 194.631 118.702 192.736 118.026C191.919 117.735 191.451 116.519 190.828 115.725L191.662 115.012Z" />
<path d="M870.845 143.649C870.877 142.837 870.909 142.025 870.947 141.053C871.86 140.712 872.833 140.349 873.426 140.127C874.393 137.66 875.187 135.483 876.271 132.541C877.003 134.927 877.609 136.963 878.204 139.01L876.929 138.939C875.909 140.071 874.988 141.34 873.803 142.241C872.979 142.884 871.844 143.126 870.849 143.543L870.845 143.649Z" />
<path d="M237.207 181.324C234.919 182.17 229.078 180.726 228.114 179.207C227.844 178.78 227.983 177.882 228.277 177.412C228.498 177.062 229.384 176.776 229.776 176.937C231.89 177.806 233.96 178.786 236 179.821C236.44 180.045 236.686 180.655 237.207 181.324Z" />
<path d="M339.301 135.541C338.059 135.299 336.792 135.14 335.579 134.792C334.452 134.468 333.382 133.942 332.139 133.907C331.203 133.363 330.243 132.862 329.352 132.252C329.056 132.049 328.933 131.563 328.729 131.206C329.15 130.967 329.681 130.427 329.973 130.534C333.213 131.74 336.421 133.048 339.643 134.333L339.301 135.541Z" />
<path d="M370.581 174.455L379.109 176.254L379.431 177.018C378.451 177.441 377.332 178.4 376.509 178.181C374.329 177.601 372.283 176.513 370.19 175.628L370.581 174.455Z" />
<path d="M870.85 143.544C869.612 144.866 868.373 146.188 866.935 147.721C865.825 144.422 867.659 139.439 869.407 138.714C869.891 140.376 870.367 142.004 870.845 143.644C870.846 143.634 870.85 143.544 870.85 143.544Z" />
<path d="M185.714 109.285C186.887 109.942 188.186 110.226 188.468 110.956C188.747 111.671 187.99 112.839 187.721 113.706C188.589 113.781 189.661 113.874 191.013 113.991C189.317 116.209 186.133 115.394 185.821 113.152C185.684 112.164 185.753 111.139 185.714 109.285Z" />
<path d="M56.0482 78.5614C53.6538 80.2286 52.5833 77.398 50.8682 76.7963C50.4402 76.6438 50.5117 74.986 50.3582 74.0225L51.5759 73.385C53.0607 75.1343 54.5161 76.9225 56.0324 78.6434L56.0482 78.5614Z" />
<path d="M716.724 100.587C719.363 99.0448 721.706 97.731 724.266 96.2047C724.355 96.9873 724.53 97.8772 724.447 97.8972C721.865 98.481 720.565 102.39 716.724 100.587Z" />
<path d="M210.512 125.612C209.115 124.074 207.682 122.586 206.076 120.741C209.382 119.298 209.821 123.321 212.28 123.585C211.523 124.454 210.949 125.112 210.512 125.612Z" />
<path d="M58.4332 109.556C60.9948 110.082 63.0117 110.496 65.3136 110.968C64.4482 112.406 63.7752 113.526 62.977 114.851C61.5595 113.2 60.1472 111.554 58.4332 109.556Z" />
<path d="M484.15 147.154C484.987 145.313 486.118 144.22 488.279 145.386C488.771 145.653 489.456 145.459 490.048 145.528C490.788 145.612 491.523 145.747 492.262 145.86L492.234 146.765C489.627 146.905 487.02 147.092 484.15 147.154Z" />
<path d="M551.242 130.75C548.867 131.856 546.911 132.768 544.776 133.763C544.697 132.549 544.643 131.726 544.592 130.936C544.839 130.844 545.063 130.706 545.102 130.756C546.204 132.182 547.112 132.324 547.936 130.44C548.808 128.443 549.766 129.318 551.242 130.75Z" />
<path d="M269.786 150.875C268.847 151.6 268.07 152.201 267.489 152.651C266.214 151.573 264.946 150.501 263.355 149.156C266.111 148.02 267.731 149.957 269.786 150.875Z" />
<path d="M451.988 189.12C450.852 189.643 449.93 190.067 449.536 190.248C448.202 189.506 447.219 188.959 446.148 188.365C448.606 186.445 450.457 186.684 451.988 189.12Z" />
<path d="M326.514 172.666C328.644 170.853 330.968 172.635 333.19 172.171L333.296 173.203C331.066 173.564 328.861 173.809 326.634 174.103L326.514 172.666Z" />
<path d="M849.959 198.966C852.614 197.802 854.624 195.09 858.313 196.984C855.056 197.248 853.586 201.868 849.959 198.966Z" />
<path d="M412.003 262.238C413.364 261.319 414.664 260.313 416.105 259.542C416.478 259.341 417.39 259.754 417.903 260.091C418.2 260.286 418.41 261.182 418.288 261.261C417.764 261.603 417.117 261.825 416.482 261.969C415.167 262.267 413.834 262.447 412.506 262.679L412.003 262.238Z" />
<path d="M465.286 137.045C462.976 137.984 460.557 139.012 458.454 139.815C459.361 137.128 460.866 136.42 465.286 137.045Z" />
<path d="M595.556 126.976C597.28 125.009 599.181 123.61 601.913 124.418L595.811 127.838L595.556 126.976Z" />
<path d="M651.696 112.564C651.932 111.007 652.123 109.728 652.41 107.823C653.288 108.555 654.191 109.309 655.093 110.062L654.764 110.702C654.405 110.519 654.046 110.338 653.28 109.95C653.712 110.985 653.97 111.601 654.373 112.566C653.333 112.566 652.466 112.564 651.696 112.564Z" />
<path d="M204.102 212.352C202.547 212.921 201.574 213.279 200.978 213.496C199.922 212.495 199.016 211.694 198.195 210.822C197.893 210.5 197.675 210.007 197.653 209.595C197.643 209.424 198.379 209.031 198.56 209.13C200.297 210.076 201.986 211.104 204.102 212.352Z" />
<path d="M40.8741 50.049C42.3726 51.6615 45.8491 50.2383 46.2192 53.6159C43.1823 54.2828 41.7185 52.5861 40.8741 50.049Z" />
<path d="M440.72 186.224C441.577 186.236 442.393 186.501 442.906 186.197C444.053 185.513 444.991 185.246 445.591 186.692C445.734 187.037 445.316 188.064 445.143 188.07C443.979 188.108 442.786 188.066 441.659 187.803C441.291 187.716 441.095 186.894 440.72 186.224Z" />
<path d="M869.528 151.897C871.148 154.63 871.142 154.623 868.717 156.339C865.797 153.828 865.849 153.507 869.528 151.897Z" />
<path d="M468.833 186.169C466.857 185.692 466.224 190.074 463.084 186.926C465.071 186.14 466.734 185.482 468.396 184.825L468.833 186.169Z" />
<path d="M875.662 164.97L869.809 169.54L869.254 168.84L874.97 163.967L875.662 164.97Z" />
<path d="M320.548 128.222C317.679 129.967 316.508 129.267 316.518 126.31C317.96 126.993 319.254 127.608 320.548 128.222Z" />
<path d="M883.412 136.576L878.892 137.611C878.913 136.971 878.865 135.796 878.957 135.774C880.394 135.416 881.857 135.198 883.321 134.939L883.412 136.576Z" />
<path d="M175.354 193.775C176.565 195.687 180.63 193.189 180.823 196.967C177.718 197.964 176.699 195.561 175.354 193.775Z" />
<path d="M586.453 126.526C588.71 126.21 590.156 126.054 591.795 125.782C591.723 126.705 591.658 127.492 591.593 128.327C589.967 127.758 588.552 127.262 586.453 126.526Z" />
<path d="M148.309 177.56C149.263 177.566 150.33 177.307 151.129 177.668C151.677 177.914 151.857 179.024 152.203 179.75C151.234 179.808 150.237 180.039 149.302 179.851C148.8 179.75 148.409 178.93 147.97 178.434L148.309 177.56Z" />
<path d="M58.2261 95.3632C56.3059 94.3386 54.166 93.5792 53.6518 90.7748L58.6951 94.7594L58.2261 95.3632Z" />
<path d="M436.767 185.132C437.004 185.562 437.431 186.34 437.776 186.969C435.877 186.753 433.894 186.528 431.91 186.303L431.866 185.301C433.393 185.249 434.92 185.195 436.767 185.132Z" />
<path d="M56.0325 78.6434C58.7192 78.9789 59.8297 81.0501 61.2714 82.7699L60.427 83.6252C58.9674 81.9411 57.5089 80.2591 56.0462 78.5719C56.0441 78.5834 56.0325 78.6434 56.0325 78.6434Z" />
<path d="M846.424 203.831C844.646 204.953 842.853 205.997 841.066 207.081L840.471 206.385C842.182 205.161 843.896 203.974 845.595 202.719L846.424 203.831Z" />
<path d="M102.049 112.406C99.9416 115.63 98.2349 112.913 96.482 112.981L96.5072 111.886C98.2286 112.047 99.95 112.209 102.049 112.406Z" />
<path d="M382.395 263.928C383.085 262.823 383.405 261.721 383.869 261.672C385.426 261.505 387.037 261.715 388.624 261.779L388.624 262.615C387.711 262.932 386.819 263.326 385.876 263.542C384.999 263.745 384.069 263.755 382.395 263.928Z" />
</svg>
