<svg width="27" height="27" viewBox="0 0 27 27" fill="none" xmlns="http://www.w3.org/2000/svg">
<path d="M16.4528 8.74747L20.7153 4.485C20.7668 4.43352 20.8319 4.39778 20.903 4.38198C20.9741 4.36617 21.0482 4.37094 21.1167 4.39574C21.1851 4.42054 21.2451 4.46433 21.2896 4.52199C21.3341 4.57965 21.3612 4.64879 21.3679 4.72132L21.795 9.41091C21.8 9.46684 21.7927 9.5232 21.7736 9.57601C21.7545 9.62882 21.724 9.67677 21.6843 9.71648C21.6446 9.7562 21.5966 9.7867 21.5438 9.80583C21.491 9.82496 21.4346 9.83225 21.3787 9.82718L16.6891 9.40007C16.6166 9.39346 16.5474 9.36632 16.4898 9.32183C16.4321 9.27735 16.3883 9.21735 16.3635 9.14888C16.3387 9.0804 16.334 9.00628 16.3498 8.93519C16.3656 8.8641 16.4013 8.79898 16.4528 8.74747ZM6.69636 22.8401L10.9588 18.5776C11.0103 18.5261 11.046 18.461 11.0619 18.3899C11.0777 18.3188 11.0729 18.2447 11.0481 18.1762C11.0233 18.1077 10.9795 18.0477 10.9218 18.0032C10.8642 17.9588 10.795 17.9316 10.7225 17.925L6.03292 17.4979C5.97699 17.4928 5.92062 17.5001 5.86782 17.5193C5.81501 17.5384 5.76706 17.5689 5.72734 17.6086C5.68763 17.6483 5.65713 17.6963 5.638 17.7491C5.61887 17.8019 5.61158 17.8582 5.61665 17.9142L6.04376 22.6038C6.05037 22.6763 6.07751 22.7454 6.122 22.8031C6.16648 22.8608 6.22648 22.9045 6.29495 22.9293C6.36343 22.9541 6.43755 22.9589 6.50864 22.9431C6.57973 22.9273 6.64484 22.8916 6.69636 22.8401Z" fill="black"/>
<path fill-rule="evenodd" clip-rule="evenodd" d="M8.286 8.24205C6.60356 9.92449 5.86532 12.1956 6.07563 14.394C6.08877 14.4959 6.08129 14.5995 6.05362 14.6984C6.02596 14.7974 5.97867 14.8898 5.91458 14.9701C5.85048 15.0505 5.77089 15.1171 5.68053 15.1661C5.59018 15.215 5.4909 15.2453 5.3886 15.2551C5.2863 15.2649 5.18308 15.2541 5.08506 15.2232C4.98704 15.1923 4.89623 15.142 4.81803 15.0754C4.73984 15.0087 4.67584 14.927 4.62986 14.835C4.58388 14.7431 4.55685 14.6429 4.55037 14.5404C4.38312 12.7857 4.72339 11.0198 5.5307 9.45292C6.33801 7.88601 7.57839 6.58395 9.10431 5.7016C10.6302 4.81925 12.3775 4.39376 14.1382 4.47572C15.899 4.55768 17.5991 5.14365 19.0365 6.16393L17.934 7.26641C16.4596 6.2926 14.6942 5.85782 12.9362 6.03559C11.1782 6.21337 9.53558 6.99278 8.286 8.24205ZM9.47845 20.0582C10.686 20.8553 12.0944 21.2945 13.541 21.3251C14.9876 21.3556 16.4134 20.9763 17.6535 20.2309C18.8937 19.4855 19.8976 18.4044 20.5494 17.1126C21.2012 15.8208 21.4742 14.3709 21.3368 12.9306C21.3237 12.8286 21.3312 12.7251 21.3589 12.6261C21.3865 12.5272 21.4338 12.4348 21.4979 12.3544C21.562 12.2741 21.6416 12.2075 21.7319 12.1585C21.8223 12.1096 21.9216 12.0793 22.0239 12.0695C22.1262 12.0597 22.2294 12.0705 22.3274 12.1014C22.4254 12.1323 22.5162 12.1825 22.5944 12.2492C22.6726 12.3159 22.7366 12.3976 22.7826 12.4895C22.8286 12.5814 22.8556 12.6816 22.8621 12.7842C23.0294 14.5389 22.6891 16.3047 21.8818 17.8717C21.0745 19.4386 19.8341 20.7406 18.3082 21.623C16.7822 22.5053 15.035 22.9308 13.2742 22.8489C11.5135 22.7669 9.81333 22.1809 8.37598 21.1606L9.47845 20.0582Z" fill="black"/>
</svg>
