<svg width="74" height="52" viewBox="0 0 74 52" fill="none" xmlns="http://www.w3.org/2000/svg">
<rect x="22.0264" y="10.6284" width="30" height="30.5" fill="white"/>
<path d="M29.7748 36.7556L48.5926 25.8783L29.7748 15.0009V36.7556ZM71.6888 8.36575C72.1602 10.0699 72.4865 12.3541 72.7041 15.2547C72.9579 18.1554 73.0666 20.6571 73.0666 22.8326L73.2842 25.8783C73.2842 33.8187 72.7041 39.6562 71.6888 43.3908C70.7824 46.654 68.6794 48.757 65.4162 49.6634C63.7121 50.1347 60.5939 50.4611 55.8079 50.6786C51.0944 50.9324 46.7797 51.0412 42.7914 51.0412L37.0264 51.2587C21.8343 51.2587 12.3711 50.6786 8.6365 49.6634C5.3733 48.757 3.27034 46.654 2.3639 43.3908C1.89255 41.6867 1.56623 39.4024 1.34868 36.5018C1.09488 33.6012 0.986101 31.0994 0.986101 28.9239L0.768555 25.8783C0.768555 17.9378 1.34868 12.1003 2.3639 8.36575C3.27034 5.10255 5.3733 2.99959 8.6365 2.09315C10.3406 1.6218 13.4588 1.29547 18.2448 1.07793C22.9583 0.824122 27.273 0.715349 31.2614 0.715349L37.0264 0.497803C52.2184 0.497803 61.6817 1.07793 65.4162 2.09315C68.6794 2.99959 70.7824 5.10255 71.6888 8.36575Z" fill="#E31019"/>
</svg>
